<?xml version="1.0" standalone="no"?>
<!DOCTYPE svg PUBLIC "-//W3C//DTD SVG 1.1//EN" "http://www.w3.org/Graphics/SVG/1.1/DTD/svg11.dtd" >
<svg xmlns="http://www.w3.org/2000/svg" xmlns:xlink="http://www.w3.org/1999/xlink" version="1.1">
<metadata>
Created by FontForge 20201107 at Tue Jan 16 03:17:20 2024
 By 
(c) Elbanadha Creative 2022. All Rights Reserved
</metadata>
<defs>
<font id="RUSTYATTACKDEMO" horiz-adv-x="1110" >
  <font-face 
    font-family="RUSTY ATTACK DEMO"
    font-weight="400"
    font-stretch="normal"
    units-per-em="2048"
    panose-1="2 0 5 0 0 0 0 0 0 0"
    ascent="1536"
    descent="-512"
    x-height="1425"
    cap-height="1493"
    bbox="-209 -434 1835 1704"
    underline-thickness="102"
    underline-position="-204"
    unicode-range="U+0020-007E"
  />
<missing-glyph horiz-adv-x="1024" 
d="M924 0h-824v1434h824v-1434zM874 49v1335h-724v-1335h724zM479 455h-33q-34 93 -34 147q0 77 82 217q79 143 79 217q0 57 -32 90t-90 33t-125 -55v45q80 72 170 72q91 0 146.5 -46t55.5 -128q0 -52 -23.5 -102.5t-84.5 -127.5q-54 -69 -76 -98t-40.5 -66t-18.5 -65
q0 -38 24 -133zM467 213q-11 0 -21 10l-61 72q-6 6 -6 16t10 23l57 57q10 10 21 10q10 0 20 -10l58 -59q8 -11 8 -21q0 -12 -10 -22l-56 -62q-14 -14 -20 -14z" />
    <glyph glyph-name=".notdef" horiz-adv-x="1024" 
d="M924 0h-824v1434h824v-1434zM874 49v1335h-724v-1335h724zM479 455h-33q-34 93 -34 147q0 77 82 217q79 143 79 217q0 57 -32 90t-90 33t-125 -55v45q80 72 170 72q91 0 146.5 -46t55.5 -128q0 -52 -23.5 -102.5t-84.5 -127.5q-54 -69 -76 -98t-40.5 -66t-18.5 -65
q0 -38 24 -133zM467 213q-11 0 -21 10l-61 72q-6 6 -6 16t10 23l57 57q10 10 21 10q10 0 20 -10l58 -59q8 -11 8 -21q0 -12 -10 -22l-56 -62q-14 -14 -20 -14z" />
    <glyph glyph-name=".null" horiz-adv-x="0" 
 />
    <glyph glyph-name="nonmarkingreturn" horiz-adv-x="682" 
 />
    <glyph glyph-name="space" unicode=" " horiz-adv-x="577" 
 />
    <glyph glyph-name="space" unicode="&#xa0;" horiz-adv-x="577" 
 />
    <glyph glyph-name="exclam" unicode="!" horiz-adv-x="563" 
d="M430 895l-6 -37l-51 -102l-45 -68l-66 -119l-57 -104l-39 -31l53 129l66 107l32 106l-32 -65l-62 -115l-47 -102l-51 -86l-12 32l-4 52l20 108l-10 -18l24 116l-55 -114l6 92l45 106l33 148l33 98l10 16v3l10 77l64 115l53 57l59 66l45 76l-6 -45l-53 -97l-8 -16l4 -12
l16 20l50 90l49 107l16 -31l10 -65l4 -17l-6 -88l35 47l6 -67l-55 -125l-12 -47l2 -5l-25 -94zM213 289l25 -21l28 -82l-12 -75l-45 -68l-74 -133l4 57l43 117l-51 -104l-41 -89l-43 62l-12 39l-35 -8l10 135l15 135l77 78z" />
    <glyph glyph-name="quotedbl" unicode="&#x22;" horiz-adv-x="733" 
d="M403 879l-51 47l-90 8l-4 108l66 60l41 69l-9 25l52 72l51 57l41 66l49 82l53 100l31 33l-23 -66l-37 -88l-57 -100l-24 -62l53 82l45 86l43 92l37 95l16 -17l31 -20l-37 -115l14 20l4 -26l-18 -98l45 88l8 -41l-37 -101l-26 -86l-43 -106l-60 -101l-67 -71l-70 -49z
M293 1270l-60 -90l-100 -78l-72 -35l-41 111l-12 30l-8 58l49 61l2 29l55 78l60 45l49 80l31 43l-13 -68l-57 -86v-25l53 78l35 84l15 33l45 -19l2 -86l12 11l6 -51l35 20l-45 -113z" />
    <glyph glyph-name="numbersign" unicode="#" horiz-adv-x="1835" 
d="M1708 772l-61 -22l-127 -21l127 -10l-19 -29l-119 -4l-43 -4l13 -33l-52 -84l-14 -51h8l117 -4l68 -8l-95 -21l-108 -6l-2 -8l2 -6h31h104l139 16l-6 -28l-41 -48l-125 -26h41l-39 -23l-102 -28l123 -2l-64 -37l-118 -13l-29 -6l-31 -39l-69 -100l-68 -84l-72 -109
l-45 -38l49 98l60 100l76 105l18 47h-6l-68 -96l-67 -101l-62 -102l-65 -115l4 64l-17 47l35 110l-35 -69l27 106l2 49l-61 -102l28 123l23 39l-58 4l-16 -21l-92 -16l-100 -23l-27 -28l-86 -17l-33 -49l-53 -67l-45 -56l39 80l47 86l-17 2l-51 -74l-69 -116l-15 -17l-16 23
l-14 51l34 72l29 65l-6 -2l-10 -18l4 18l-109 -4l-119 4l-63 10l10 11l115 18l151 -4l27 6l6 15l-57 -5l-129 3l-117 -9l-133 -10l35 37l43 41l106 33l-71 -11l141 45l-14 19l-78 10l137 27l102 22l74 31l4 4l31 96l16 45h-34l-113 13l-82 8l-6 12l119 19l131 -11l6 19
l-88 2l-131 -6l-103 2l-10 26l33 41l80 29l-47 -4l141 47l-109 4l45 39l140 8l110 41l13 2l10 19l49 92l-2 37l63 112l76 82l78 94l76 86l49 64l-27 -80l-59 -88l-45 -55l16 4l2 -4l15 18l75 103l58 98l18 12l29 -53l-15 -72h13l-4 -47l-27 -76l78 111l-37 -125l-68 -115
l-12 -37l-6 -22l-10 -31l-8 -18l-2 -6v-4l14 10l119 12l135 19l16 -7l82 107l74 76l16 -9l-59 -92l-68 -96l13 -4l71 98l72 92l35 41l41 -47l-39 -92l24 21l-26 -103l63 78l-22 -92l-4 -12l51 -7l108 -12l47 -12l-102 -10l-117 4h-6l-6 -15l119 -4l117 4l63 11l-23 -48
l-40 -36l-134 -23h70zM451 141l4 11l-6 -11h2zM719 442h6l-2 11zM1108 530l10 25l-4 61l2 7l-76 -7l-28 -2l-45 -34l-80 -15l-25 -10l-2 -4l-39 -80h19l104 21l19 28l133 12z" />
    <glyph glyph-name="dollar" unicode="$" horiz-adv-x="1239" 
d="M1077 473l4 -172l-37 -135l-63 -107l-41 -28l-70 -64l-98 -73l-133 -52l-78 -18l-8 -23l-18 -37l-43 -75l30 98l8 33h-12l-20 -66l-33 -106l-4 24l-27 21l-6 35l16 86l-145 20l-74 12l11 7l-113 14l10 10l113 -14l78 -6l73 -9l-6 11h-8l-92 16l-88 10l-111 17l-92 30
l27 -6l39 6l10 9h67v6h50l163 -10l43 6l-108 8l-86 6h125l69 -4h4l3 10l4 17l-56 4l-57 10l96 4h23l24 94l27 94l20 80l29 94l31 86l31 82l-25 13l-94 39l-58 36l-100 136l4 -50l-31 142l54 160l69 92l86 63l47 17l123 77l82 27l6 25l25 112l10 33l27 78l-12 -94l-9 -86
l-12 -58l12 2l2 4l17 105l14 96l10 102l11 -49l28 -12l8 -31v-114l11 -21l2 88l6 -90l-2 -67l10 -3l2 5l21 118l10 -108l-2 -19l74 -12l98 -20v-9l76 -49l-62 33l-92 16l-98 13v-15l55 -6l90 -14l100 -49l68 -60l-18 11l12 -33l-76 35l-10 -9l-57 35l-109 11l8 -11l98 -6
h-75h-80h-25l-2 -16l74 -11l59 -12l-108 -6l-31 2l-4 -12l8 -80l4 -74l-14 -137l-27 -84l-8 -25l35 -20l90 -82l70 -86l-47 94zM889 1268l-2 -11h2l2 11h-2zM434 -158l2 17h-26l-4 -13zM451 -156v2v-2zM539 -145l4 12l-13 -2l-4 -12h4zM764 1253l-4 -12l6 2h6l2 14zM739 217
l-41 -90l-39 -45l-10 -23l64 43l24 33l70 96l12 39l10 80l2 45l-18 39l-27 29l-6 -29l-14 -90l22 4zM725 1053v4v-2v-2zM594 1180l-84 -64l49 29l103 61l61 21l2 10v4l-61 -18zM553 793l29 6l55 -23l2 6l-6 37l10 53l14 105l7 35l-25 -23l-61 -61l-29 -51l-19 -48l-4 -10
l23 -24zM633 125l-47 -92l16 6l8 20zM840 -12l80 84l-21 -17l-96 -86l-96 -55l-105 -35l-22 -4l-5 -10l121 31l92 47z" />
    <glyph glyph-name="percent" unicode="%" horiz-adv-x="1210" 
d="M1149 403l51 -114l10 -76l-30 -141l-74 -119l57 51l-71 -86l-111 -90l-137 -39l-154 6l-28 29l-140 86l-30 188l53 111l53 72l113 104l104 51v-8l103 23v-11l-121 -30l-86 -60l-86 -86l-66 -92l-43 -160l43 -92l113 -59l20 -2l-129 75l-26 150l41 92l61 88l94 90l82 41
l113 31l6 -2l6 20l-90 31l8 4l92 25l123 -12zM979 190l8 52l-16 51l-2 29l-13 10h-61l14 30l-51 -18l-88 -55l10 -4l25 16l-21 -25l-90 -112l-10 -27l37 41l92 88l23 10l-56 -67l-53 -68l-33 -61l-8 -37l78 -14l63 8l25 12l45 45l49 41zM1067 1335l-8 -47l-15 -51l7 -6
l-39 -84l71 86l-32 -94l-76 -88l-39 -66l-47 -84l-64 -70l-47 -57l-28 -51l-64 -84l23 2l-72 -80l-53 -74l-54 -45l-65 -80l-82 -77l-59 -54l-88 -84l-23 -12l-55 -41l47 51l57 68l66 66l102 94l41 55l33 53l-78 -92l-74 -72l-69 -67l-70 -72l-72 -74l-63 -77l20 45l-22 22
l8 33l63 80l50 72l-64 -80l31 53l61 84l6 18l-71 -65l-29 -15l51 78l70 78l67 78l43 80l35 67l74 107l55 59l72 78l6 6l33 66l43 73l18 33l76 92l62 33l69 53l68 76l33 12l-56 -79l-84 -78l-51 -58l59 43l70 66l60 74l59 80zM203 793l-185 118l-18 152l27 49l49 135l80 119
l73 66l117 69l143 -6l-2 -8l103 -64l-62 31l-106 31l-121 -41l-82 -62l-104 -133l-27 -57l-33 -125l8 10l48 133l55 95l74 79l88 62l118 22l97 -41l73 -71l15 -23l-33 19l31 -47l35 -138l-37 -67l-45 -103l-52 -59l-118 -74l30 -4l-80 -35zM242 1092l-4 -56l6 21l63 22
l64 29l35 33l36 59l37 12l-6 41l-14 50l47 8l49 -21l6 66l-10 -4l-49 28l-64 13l11 2l-11 -2l-47 6l-14 -21l47 11l-35 -15l-86 -76l19 7l69 45l41 6l-20 -21l-62 -47l-57 -65l-37 -72z" />
    <glyph glyph-name="ampersand" unicode="&#x26;" horiz-adv-x="1003" 
d="M829 260l-49 -94l-73 -76l8 -29l-17 2l-4 15l-2 -4l-12 -11l29 -81l49 -109l-60 107l-10 -35l-51 78l-27 -23l-106 -76l-242 -67l-123 18l-139 236l29 147l57 127l94 117l58 20l63 64h8l-18 61l-31 146l-4 106l14 150l70 137l92 121l180 84l140 2l180 -60l69 -135l3 -65
l-50 -156l-30 80l-11 4l-4 -37l13 2l-2 -47l4 -51l43 57l-25 -106l-61 -125l-90 -138l-89 -88l-108 -65l16 -66l21 -78l69 68l19 4l80 60l-70 -70l-67 -82l-21 -18l2 -5l4 -8l23 21l73 73l93 95l67 75l-33 -77l-2 -37l-6 -29l-74 -86l-55 -86l66 82l-21 -41l-55 -78l-31 -37
l4 -16l23 16zM831 1053l-14 -4l-22 -45l-68 -101l-55 -78l82 86l53 88l29 54h-5zM530 807l-2 -33l25 31l76 69l69 56l56 74l37 55l12 88l-33 -17l4 5l-26 6l-70 -21l-45 -12l-12 -31l22 4l-49 -61l-39 -80l-6 -80zM477 803l-2 -74l2 -12l10 10zM428 383v-18l16 -76l37 -90
l23 16l-17 23zM311 141l23 -24l96 43l33 22l-2 2l-53 115l-23 66l-2 -3l-41 -59l-20 -74l-33 -75l26 8zM487 131l13 10l-11 13l-32 -25l-35 -14l-109 -41l107 24zM504 145l28 23l-8 12l-26 -20zM537 172l8 6l-8 12l-9 -6zM602 291l-27 86l-22 88h-16l16 -55l35 -113l4 -12z
M612 238l11 8l-7 10l-8 -8zM666 104l16 11l-4 12l-14 -18z" />
    <glyph glyph-name="quotesingle" unicode="'" horiz-adv-x="555" 
d="M453 1454l90 -115l12 -43l-82 -55l-8 -65l-90 49l-49 32l-45 7l-72 67l-31 53l-78 68l-67 68l4 18l80 -57l78 -68l10 6l-74 66l-74 59l-57 45l59 13l66 -23l-35 31l103 -39l-54 51l62 -10l88 -51l88 -45z" />
    <glyph glyph-name="parenleft" unicode="(" horiz-adv-x="800" 
d="M784 1610l17 -8l-31 -58l4 -10l-43 -53l-82 -88l23 10l67 76l-65 -84l-66 -64l-63 -63l59 39l94 75v-16l-59 -63l-80 -64l-55 -63l-6 -9l14 -16l10 -49l72 43l14 -6l-33 -64l-12 -69l-41 -37l-35 -70l-28 -61l-25 -37l-39 -84l6 -17l9 -2l-27 -69l-18 -94l-7 -66l-2 -68
l-12 -24l25 -90l24 -90l31 -68l31 -59l63 -119l31 -80v-8l24 -51l13 -31l-49 76l-35 67l-51 92l-43 72l-48 111l-22 75l-21 56l-16 80l2 -52l21 -84l26 -88l31 -69l43 -76l59 -102l29 -74l43 -70l61 -65l64 -66l-78 72l12 -37l-61 39l-2 -19l-47 48l-80 131l-27 41l25 -56
l45 -84l-51 84l-33 51l-80 111l-14 10l22 -47l64 -112l12 -39l-47 63l-55 80l-49 82l-46 94l-34 103l-27 73l-14 115l-2 43h-2l-13 -78l-10 2l-43 68l-45 94l18 63l2 84l19 56l35 106l-33 -33l39 82l61 107l43 67l49 39l62 62l65 74l97 83l65 46l84 61l51 45l33 23l19 2
l-74 -72l-62 -57l-67 -52l-127 -104l-47 -53l-43 -56l-17 -26l74 80l70 75l86 70l76 57l69 56l70 71l69 64z" />
    <glyph glyph-name="parenright" unicode=")" horiz-adv-x="538" 
d="M516 797l2 -90l-4 -95l25 54l-19 -91l-33 -122l-38 -86l-29 -68l-27 -23l-31 -96l-43 -100l-47 -82l-47 -66l-61 -98l-37 -55l-8 2l-45 -66l32 62l39 71l45 82l43 68l74 131l27 70l14 57l23 74l-35 -86l-31 -84l-41 -88l-47 -80l-47 -76l-49 -80l-45 -76l-39 -77l-37 -74
l31 84l-23 -8l12 67h-8l27 64l55 110l-6 13l-47 -101l10 33l25 61l53 113l8 27l-35 -45l-63 -107l-10 -4l28 80l43 76l37 78l31 92l8 49l39 137l16 49l25 86l6 39l-6 43l-2 76l-16 -8v75l2 101l-7 80l17 41l-17 77l-10 113l-4 68l-16 96l-15 53l-10 37l19 -12l30 -80l23 -82
l6 -102l12 -97l4 -12h13l-4 31l-13 96l-8 84l-20 88l-27 76l-49 72l-2 6l12 16l68 -51l12 -2l57 -113l23 -29l-47 105l41 -70l32 -90l17 -43l-4 68l-31 112l49 -84l21 -94l16 -92l21 -70l12 -53l24 -24l11 -70l4 -80z" />
    <glyph glyph-name="asterisk" unicode="*" horiz-adv-x="765" 
d="M12 1124l23 27l71 43l-30 -8l102 43h-67l-23 16l105 29l96 33h4l-12 47l-23 73l4 27l47 -90l13 -49l14 4l-29 72l-43 92v20l47 4l51 -65l-18 43l53 -60l6 13l41 88l27 33l25 28l-31 -84l-29 -63l10 -17l13 23l35 88l32 98l15 -8l28 -31l-12 -84l12 21l4 -37l-8 -76
l41 101l2 -78l-30 -92h18l72 -19l73 17l-12 -78l37 -72l-59 -68l-89 -4l-10 -2l25 -112l-4 -58l-51 -34l-76 -46l-64 56l-20 45l-45 -33l-45 -33l-74 25l-31 8l-24 78l34 67l-73 -6l-80 -12l-35 8l92 31l113 14l6 13l-25 -5l-102 -14l-96 -29l-33 -8z" />
    <glyph glyph-name="plus" unicode="+" horiz-adv-x="1296" 
d="M1112 709l90 8l94 24l-4 -18l-2 -27l-96 -32l23 -2l-21 -15l-96 -29l98 9l-27 -23l-94 -20l-98 -25l-92 -27l-96 -14l-27 -6l-10 -33l-27 -78l-20 -61l-33 -82l-27 -61l-22 -70l-25 -45h-18l-4 -70l-7 -65l-41 41h-24l-41 -2l-39 -41l-10 63l-29 55l19 54l8 69l10 64
l18 35l29 88l-10 12l-2 16l26 64l17 45l-76 -2l-84 10l-102 -2l-99 4l-49 4l-57 13l96 4l96 2l105 2l86 10l-119 -2h-100l-90 -2l-109 -6v6l18 31l35 12l88 20l-73 -8l100 23l12 12l-94 -4l84 27l98 8l99 16l96 19l100 8l31 -2l31 90l37 80l26 69l21 58l26 100l25 66l4 -2
l27 75l14 4l-29 -86l-14 -65l-19 -80l-18 -66l-45 -108l-27 -60l-16 -57l-6 -20h6l6 12l31 78l33 73l26 72l21 72l20 90l23 55l20 90l12 62l9 49v-66l16 5l10 -56l10 4l-8 -47l-24 -125l2 -37l16 84l14 56l-14 -90l-6 -66l-16 -98l12 18l16 47l25 111l8 -17l-2 -71l-16 -76
l-25 -86l-29 -78l-14 -53l27 2l61 -4l92 8l111 12l90 7l55 4l-65 -25l-84 -12l-119 -13l-82 -16l107 8z" />
    <glyph glyph-name="comma" unicode="," horiz-adv-x="382" 
d="M348 55v-108l35 88l-2 -109l-41 -104l-51 -103l-84 -77l-68 -29l-67 10l-70 72l10 61l49 60l9 34l61 80l49 37l45 58l31 59l-2 -51l-45 -82l-27 -53l58 71l30 78l23 103l35 -58l8 -72z" />
    <glyph glyph-name="hyphenminus" unicode="-" horiz-adv-x="1236" 
d="M1130 766l107 12l-12 -8l6 -35l-33 -16l-115 -23l11 -8l30 2l-88 -22l-51 -15l98 -2l-4 -16l-88 -17l-90 -26l-94 -35l-125 -22l-100 -9l-62 -2l-104 -14l-90 -4l-45 6l-29 18l-68 5l-98 14l-43 16l84 8l115 -12h2l6 14l-57 5l-101 6l-92 -11l2 25l37 39l98 25h-57
l113 20l-58 14l10 25l93 4l75 25l90 39l123 14l105 -21l8 -4l78 2l39 -16l92 20l113 19h122l45 -4l70 -8l-86 -11l-96 -8l-142 -16l-69 -17l-62 -16l88 10l103 21l115 10h81z" />
    <glyph glyph-name="hyphenminus" unicode="&#xad;" horiz-adv-x="1236" 
d="M1130 766l107 12l-12 -8l6 -35l-33 -16l-115 -23l11 -8l30 2l-88 -22l-51 -15l98 -2l-4 -16l-88 -17l-90 -26l-94 -35l-125 -22l-100 -9l-62 -2l-104 -14l-90 -4l-45 6l-29 18l-68 5l-98 14l-43 16l84 8l115 -12h2l6 14l-57 5l-101 6l-92 -11l2 25l37 39l98 25h-57
l113 20l-58 14l10 25l93 4l75 25l90 39l123 14l105 -21l8 -4l78 2l39 -16l92 20l113 19h122l45 -4l70 -8l-86 -11l-96 -8l-142 -16l-69 -17l-62 -16l88 10l103 21l115 10h81z" />
    <glyph glyph-name="period" unicode="." horiz-adv-x="282" 
d="M203 41l43 -109l37 -51l-41 -80l-66 -43l-74 -30l78 75l-35 -14l-65 -70l-37 52l-6 32l-37 21l33 98l51 84z" />
    <glyph glyph-name="slash" unicode="/" horiz-adv-x="552" 
d="M504 1253l16 13l33 94l-2 -84l-21 -92l-4 -74l17 10l-2 -100l-4 -96l-25 -47l-12 -84l-33 -74l-47 -103l39 35l-43 -71l-27 -97l-18 -82l-41 -71l-39 -82l-37 -96l-37 -89l-39 -81l-28 -105l-9 -16l-24 -90l-2 39l18 96l21 92l36 88l56 137l20 53l41 103l-35 -66l-41 -90
l-36 -94l-37 -94l-31 -101l-21 -71l-18 -115l-27 -98l15 86l-21 2l-14 45l-2 24l16 142l2 59l-16 -114l-4 18l8 86l33 125l-21 -33l-37 -96l-20 -72l6 115l33 92l31 100l41 123l24 82l6 74l17 104l37 103l20 30l12 76l17 70l-13 8l37 125l29 57l25 70l30 113l37 104l37 68
l31 39l-25 -78l-35 -99l-39 -131l-8 -57l8 -2l21 86l29 102l36 99l37 92l11 20l26 -24l6 -37l-28 -111l16 25l4 -10z" />
    <glyph glyph-name="zero" unicode="0" 
d="M1110 985l-29 -133l-18 -74l-64 -141l-26 -55l-66 -107l-63 -76l-66 -75l-59 -66l-74 -63l-22 4l-70 -88l-4 16l-131 -84l-62 -16l76 6l148 82l30 16l-80 -82l-135 -53l-155 4l-144 98l-49 72l-47 170l-8 88l22 133l31 98l49 95l51 92l52 84l69 80l6 -13l13 19l39 65
l57 78l-23 10l93 99l88 73l65 19l133 53l127 12l137 -102l11 -39l10 -76l-41 103l-107 80l-151 -15l-80 -37l-33 -26l119 49l98 18l131 -59l43 -92l5 -19l34 -49l31 -147l6 51l-24 127v20l51 -114zM856 1276l-2 -14l10 -13h2l52 -80l20 -14l-12 27l-54 84zM438 162l72 53
l-21 -4l-6 -6l-65 -43l-90 -8l-80 34l-21 25l-30 82l-2 -12l30 -88l54 -45l75 -11zM516 111l31 28l-2 8l-8 -8zM825 819l27 10l37 95l24 80l5 71l-25 86l-21 51l-12 21l-24 6l-15 -14l-78 -29l-65 -57l-45 -56l-53 -63l-64 -68l-59 -61l-15 -2l-6 -25l-30 -24l-21 -29
l-6 -12l-2 2l-17 -21l-20 -69l-37 -72l-22 -80l32 47l-39 -86l-26 -102l-4 -47l-4 -49l6 -66l26 -43l45 -25h58l63 25l39 68l25 63l45 55l35 60l55 65l37 64l-8 4l57 74l55 84zM944 932l17 78v92l-3 4l-10 -100l-39 -117l-14 -51l-29 -62l39 64zM1016 1171l18 -26l-22 39z
" />
    <glyph glyph-name="one" unicode="1" horiz-adv-x="700" 
d="M522 682l-14 -66l-27 -75l23 -2l-29 -82l-47 -117l-41 -45l-45 -96l-45 -80l-43 -103l-31 -59l-22 -35l16 66l29 90l47 100l39 76l28 82l-47 -88l-47 -90l-35 -88l-34 -84l-33 -101l-6 -6l-23 19l-18 26l26 109l-2 37l-20 -78l14 94l15 94l-37 -92l-21 -25l14 91l41 112
l25 76l29 107l18 57l-2 45l21 67l26 78l33 68l18 65l7 25l38 94l31 82l10 12l-6 -4l-61 -12l-103 -49l-84 -29l-55 -16l-39 -2l88 49l109 41l63 37l-39 -13l-94 -38l-82 -37l-88 -45l-10 8v47l63 51h-16l14 23l64 51l-90 -37l47 55l84 45l80 66l90 65l65 31l84 43l52 -6
l45 10l20 -16l35 65l25 35l-9 -39l-28 -78l8 -8l24 49l41 95l35 61l8 -24l-10 -86l4 -17l-37 -115l21 35l8 15l-27 -99l-26 -75l43 65l43 80l-27 -107l-45 -90l-47 -98l-23 -84l-14 -72l-45 -125zM453 1014l36 69l-14 -8z" />
    <glyph glyph-name="two" unicode="2" horiz-adv-x="1085" 
d="M-141 55l69 15l76 -4l-4 14l-74 2l-88 -2l-2 20l6 37l103 19l-54 2l93 18l12 19l-59 18l88 12l36 2l33 54l-49 -39l-27 -4l50 75l73 95l45 77l68 80l74 70l45 29l2 2l61 65l-37 -8l72 76l74 84l63 67l54 29l77 72l66 59l8 8l-74 -16l-8 -21l-102 -6l-56 6l-79 -20
l-99 -25l-96 -26l-45 -11l61 41l91 31l102 31l63 26l-100 -24l-98 -29l-88 -28l-92 -58l-13 19l17 53l102 65l-41 -14l33 33l69 43l-100 -31l57 51l89 37l98 49l119 41l102 8l104 -10l78 -47l58 -29h2l34 25l-26 -31l12 -6l23 25l59 80l-22 -43l20 -13l16 -20l-45 -68
l-59 -90l29 31l10 10l-43 -74l-66 -90l41 31l84 94l-18 -55l-64 -78l-71 -80l-60 -67l-63 -86l-41 -62l-70 -88l-61 -61l-70 -72l-27 -25l7 -6l-84 -80l-60 -61l-57 -35l-4 -4h10h25l59 23l21 18l110 27l72 -7l100 7l123 2l45 -4l-68 -19l-112 -14l-103 -12l2 -9l105 9
l113 14l90 10l6 -18l4 -37l-115 -29l62 2l-80 -31l-17 -22l45 -6l-75 -31l-101 -27l-49 -22l-63 -23l-13 -28l-81 -8l-72 -9l-39 -16l-82 2l-111 18l-75 11l-4 2l-7 -6l-2 6l-98 18zM928 1192l-10 -29l24 29l10 12zM672 938l-17 -25l86 76l70 64l57 59l-26 -14l-2 2l-37 -37
l-84 -74zM289 322l-70 -68h4l17 2l39 45zM55 76l-8 -13h4l76 -10v8z" />
    <glyph glyph-name="three" unicode="3" horiz-adv-x="1044" 
d="M1028 600l-4 -45l-47 -39l2 -10l-8 4l-15 -10l72 -43l-6 -23l-33 -20l-31 10l-53 -53l-98 -72l-80 -68l-65 -59l-74 -43l-84 -47l-96 -35l-35 -16l-39 35l-84 -33l-82 -19l-88 -22l-105 -31l-43 -4l-16 4l96 43l109 33l76 33l-7 6l-98 -31l-92 -35l-98 -37l-78 -41l12 37
l19 43l98 60l-49 -19l35 35l79 51l-94 -28l19 32l94 45l63 31l103 66l71 49l97 37l98 30l49 -4l6 -4l72 45l66 15l38 22l-20 4l-55 13l-15 -5l-67 19l-60 -4l-59 6l-74 24l-31 9l-4 -2l-73 -56l-45 -16l67 61l23 21l-15 4l-14 -12l-72 -64l-34 -28l-11 40l13 39l43 50l-7 2
l-14 -15l8 17l-26 10l-47 24l-11 13l86 -15l15 -4l4 8l2 3l-66 16l-94 18l-2 23l16 33l95 2l-45 10l108 4l-55 27l22 20l86 -12l43 47l54 80l61 80l68 69l16 11l33 57l-2 33l33 45l-58 -2l-71 -13l-113 -28l-103 -25l-51 -8l58 35l92 28l108 29l74 29l-84 -15l-106 -32
l-99 -27l-90 -37l4 23l4 37l80 47l-10 6l12 16l86 47l-88 -18l10 27l95 38l84 41l100 45l98 37l90 13l115 -4l14 -3l27 27l41 39l41 27l-59 -82l-15 -17l15 -4l39 47l51 82l6 -10l20 -41l-4 -35l-41 -90l37 57l-49 -98l10 -12l64 76l-39 -90l-60 -86l-47 -86l-41 -87
l-49 -69l-10 -51l-57 -52l-33 -34l-10 -39l-58 -64l-22 -22l57 -6l62 -17l67 -39l98 -67l37 -35l17 6l37 12l-37 -32l10 -13l33 21l77 55zM217 606h2h-2zM324 584l6 6l-15 2l-10 -10zM897 557l-10 -6l10 -8l8 6l-2 2zM713 430l47 27l-12 8l-29 -16l-64 -43zM858 573l8 -6
l13 6l-50 48l-59 20zM924 420l8 2l-23 8l-32 -31zM934 422l14 4l-33 12l-2 -4z" />
    <glyph glyph-name="four" unicode="4" horiz-adv-x="1146" 
d="M338 446l-107 3l-79 12l-19 -25l-29 -20l27 49h-4h-12l-25 -39l-27 -57l-12 45l-12 41l8 18l-24 2l-37 14l-17 13l90 -2l4 12h-8l-4 -6v6h-12l-98 6l-62 2l29 27l29 31l86 6l20 51h-23l27 6l10 27l47 104l29 92l41 97l49 75l58 80l10 8l-2 21l55 84l62 51l65 80l61 76
l54 41l-13 -25l-55 -88l-72 -84l-38 -63l71 81l62 78l65 82l49 70l15 -49l-4 -43l-41 -86l14 28l-29 -90l45 49l19 -16l-53 -92l-56 -96l-24 -76l-56 -80l-49 -57l-2 -25l-37 -68l-49 -92l-51 -49l-14 -24l24 4l103 16l96 16l108 -14l86 -14l45 88l9 16l14 31l35 86l-8 27
l45 90l43 45l57 112l57 80l39 39l27 19l-51 -89l-68 -110l-29 -72l29 43l55 94l52 86l55 84l14 -14l25 -27l-41 -92l20 23l-4 -39l-18 -66l53 76l-14 -76l-41 -92l-27 -104l-29 -94l-38 -74l-9 -12l-10 -39l-35 -76l21 -4l-35 -82l-39 -98l-41 -56l-35 -88l-51 -94l-49 -86
l-43 -80l-23 -39l11 51l32 86l45 86l52 105l24 76l-24 -45l-41 -86l-45 -89l-43 -88l-37 -94l-25 -86l-12 41l-10 68l-2 22l26 107l-20 -58l4 52l33 102l-19 -14l-49 -103l4 70l37 94l35 90l14 60l-43 -4l-65 -11l-33 -8l-113 -2zM76 604l8 27h-6l-17 -29zM240 678l-15 -25
l19 2l8 15l37 78zM145 492l9 14l-11 2h-2l-4 -8l-4 -6zM182 504l-10 -15l104 -8l76 140l-106 -125z" />
    <glyph glyph-name="five" unicode="5" horiz-adv-x="1062" 
d="M846 436l-33 -45l-76 -92l13 -2l-72 -68l-70 -63l-57 -27l-92 -76l-101 -57l-75 -39l-115 -59l-14 6l-64 -10l76 28l96 58l96 55l97 57l63 60l-26 -15l-86 -59l-87 -51l-86 -51l-83 -41l-93 -45l-57 -23l6 23l64 65l10 15l98 59l-31 -10l-24 -13l57 50l84 69l-51 -22
l-109 -68l62 68l82 55l80 57l49 51l80 91l61 71l64 62l71 65l52 37l18 14l-78 -4l-67 -12l-48 10l-106 -24l-111 -21l-80 -16l-55 -12l-12 -19l-23 6v4l-14 -4l-16 2l-84 -24l80 35l26 10l-6 16l-27 -6l-104 -47l-86 -27l59 41l15 29l14 18l82 45l63 31v2l-67 -24l31 18
l41 21l8 30l-17 -6l-22 -29l-2 21l-33 -8l31 20v13l39 88l12 100l29 104l43 70v2l2 14h-2l-105 15l19 18l94 -2l2 14h-88l-90 2l32 56l29 18l66 35l-52 27l103 22l78 37l88 -6l18 20l57 50l-6 -27l-34 -45h16l18 22l56 80l22 -12l10 -53l97 20l67 -2l96 10l101 7l110 6
l58 -4l-62 -17l-96 -18l-117 -6l-80 -21l89 6l98 8l100 15l105 12v-10l-25 -43l-39 -21l-47 -22h16l-92 -37l47 -2l31 -12l-90 -29l-100 -25l-86 -34l-93 -31l-98 -19l-49 -2l-4 -16l-47 -82l-15 -20l-10 -58l-20 -55l-35 -47l-8 -19l67 23l119 39l80 22l115 9l125 -13
l127 -233l-56 -96l-49 -29l-35 -41zM225 578l6 12l-20 -6l-8 -15zM326 791l-13 -23l11 4zM473 633l100 26l-94 -14l-102 -20l-96 -21l-15 -4l-14 -16l18 6l142 26z" />
    <glyph glyph-name="six" unicode="6" horiz-adv-x="944" 
d="M600 150l-92 -62l-123 -53l109 18l-170 -37l-195 111l-61 88l-43 98v49l-25 150l27 131l36 105l41 81l82 123l13 15l10 12l43 55l43 68l20 28l88 78l74 31l113 59l94 27l125 31l41 -2l-14 -13l-103 -32l-117 -37l-81 -39l-39 -33l108 53l94 31l111 33l96 22l17 -2l-4 -39
l-31 -24l-94 -39l59 18l-47 -30l-98 -54l90 23l12 -14l-82 -41l-90 -45l-62 -60l-53 -63l-55 -54l-66 -61l-61 -51l-29 -25l-30 4l-17 -51l-33 -90l-18 -94l-2 -66l29 -65l36 -66l46 -51l32 -25l17 13l51 26l57 43l68 45l67 52l9 -19l36 53l3 21l26 41l14 43l-8 35l-2 -21
l-20 6l-19 31l-67 -2l-84 -31l-80 -43l-35 -8l51 45l80 47l92 23h58l-47 14l-74 -12l-90 -45l-78 -53l-64 -54l7 41l8 47l82 78l-35 -20l16 28l92 72l-65 -22l-43 -9l92 64l143 47l144 -6l145 -84l43 -185l-55 -120l-70 -66l-37 -45l-14 -41l-70 -57l-51 -37zM123 770l37 76
l-2 16l-31 -55l-35 -78l-51 -170l-6 -86l22 -86l29 -74l-35 127l4 119l27 109zM242 795l-39 -113l14 18l29 56l18 28l-6 2z" />
    <glyph glyph-name="seven" unicode="7" horiz-adv-x="1038" 
d="M602 403l-65 -100l-50 -76l-45 -28l-63 -90l-53 -78l-66 -92l-47 -60l-33 -41l29 60l43 82l49 77l78 105l35 59l8 25l-70 -92l-53 -78l-53 -86l-51 -72l-54 -94l-16 -23l-14 19l-5 51l19 45l41 92l-27 -45l8 33l37 90l4 25l-57 -80h-14l33 82l53 96l49 86l51 102l37 78
l10 17h-4l-129 -7l-59 15l82 14l116 10l17 6l6 9l-82 -7l-100 -2l-76 -6l26 54l74 22l-18 10l51 29l-41 14l61 31l123 39l88 25l52 -7l22 23l2 8l43 98h-14l41 78l37 88l41 51l26 54l-28 -8l-72 -21l-10 -20l-70 -27l-113 -39l-53 2l-121 -35l-80 -20l-98 -29l-33 6l74 29
l88 39l115 20l82 41l-84 -26l-103 -21l-92 -37l-88 -28l-49 -27l10 39l21 41l86 49l-45 -16l30 28l97 60l-101 -33l-4 20l105 50l90 34l92 56l84 41l86 24l88 39l45 27l117 14l47 -10l65 6l19 31l18 10l47 63l-43 -77l-12 -23l21 2l6 8l47 86l47 90l-12 -71l8 -35v-27
l-25 -57h10l9 14l-6 -14l30 -4l41 -16l-12 -11h-70l-4 -12l78 -4l94 4l-33 -35l-36 -31l-43 -16l-7 -10l-51 -17l-2 -6l74 -10l-88 -20l-49 -91l-37 -69l-33 -111l-18 -71l-37 -103l-8 -12h4l104 10l27 -18l-101 -23l-61 -8l-4 -8h12l101 16l100 15l-6 -43l-64 -39l29 -2
l-84 -54l82 6l-96 -47l-99 -45l-84 -24l-51 -4l-18 -66l-11 6zM1020 1378l-6 -12h12l6 12h-12zM924 1374l-6 -10h14l6 10h-14zM889 1372l-2 -2h2v2zM758 1102l-8 -35l49 88l-17 -2z" />
    <glyph glyph-name="eight" unicode="8" horiz-adv-x="1032" 
d="M1020 1171l6 -4l6 -45l-22 -32l-54 -52l31 19l-74 -70l29 4l49 13l-65 -60l-86 -67l-66 -70l-78 -64l-12 -10l49 -69l39 -70l29 -29l26 -108l-2 -123l-45 -101l-84 -112l-88 -68l-61 -30h-2l-66 -33l-155 -23l-52 2l70 -20l170 24l-29 -24l-125 -29l-122 21l-121 69
l-90 119l-25 172l18 107l41 112l54 88l80 80l81 66l-65 71l-41 88l-27 197l47 139l64 90l74 82l24 -2l101 74l96 49l131 35l131 8l119 -39l76 -100l18 -176l-39 -117l-4 -4zM213 844l66 -88l8 6zM301 78l88 -12l80 16l2 4l12 14l-84 -22l-73 6l-93 51l-34 41l-19 53l-4 27
l10 -84l47 -59zM518 16l8 2l-32 -6l32 21l-30 -17l-66 -28zM510 127l20 25l-26 -23zM571 281l11 45l-9 75l-16 17l-22 69l-11 33l-57 82l-4 4l-23 -16l-39 -33l-59 -57l18 -4l-32 -43l-47 -70l-29 -68l-14 -69l-21 -6l19 -56l45 -47l55 -20l76 -8l86 22l41 47l6 27l-66 -51
l37 65zM711 205l-47 -47l-13 -33l11 10l83 101l13 67l-4 6zM778 1030l21 29l-47 -27l-62 -53l68 39zM872 1194l-32 -51l45 88l6 61l-6 72l-54 55h-18l33 -20l28 -60l-14 -67l-12 -33l2 86l-8 23l-17 34l-41 7l-86 -17l-86 -29l-39 -26l-63 -51l-72 -88l-22 -39l-17 -62v-41
l27 -49l41 -65l31 -31l6 6l-6 25l102 69l64 27l75 45l90 51l9 2l6 12zM903 1317l-14 -86l20 49l-2 18zM963 1161l-23 -18l-20 -13l-19 -28l33 20h2zM942 1165l23 9l24 79l15 115l-50 100l-118 76l-183 -6l-98 -29l-47 -22l-74 -45l-90 -84l45 37l113 73l102 41l109 25l102 2
l121 -59l35 -82l6 -150z" />
    <glyph glyph-name="nine" unicode="9" horiz-adv-x="1087" 
d="M1118 967l-28 -90l-41 -84l-58 -115l-59 -84l-33 -59l-76 -121l-37 -66l-53 -90l-37 -63l-78 -86l7 -5l-33 -112l-100 -51l-95 -21l-24 -22h-144l-55 26l-104 8l45 23l-90 49l-76 74l-35 59l2 10l86 -77l100 -80l52 -15v7l-50 24l-84 62l-77 82l-70 67l18 14h52l84 -67
l-50 53l91 -57l20 4l-43 53l76 -41l69 -31h80l52 15h18l6 6l49 51l66 82l-45 -31l49 62l63 90l62 84l4 8l-33 -18l-86 -37l-121 -39l-39 14l-122 2l-150 88l-37 191l41 108l49 78l76 115l35 41l51 63l35 49l57 76l37 62l2 12l66 67l86 86l86 50l84 24l161 12l146 -114
l37 -121l-19 -115l23 -12l33 -4v-8l34 67l19 35l-19 -72l13 -4l-9 -63v-4l9 4l47 14l-39 -80l-21 -78l-41 -38l-18 -23l-55 -129l-6 -29l32 49l64 119zM713 1507l-64 -37l139 46l111 -23l-92 37zM244 909l-8 -26l12 20l-2 6h-2zM188 764l-10 -41l37 63l53 86h-2l-12 23
l-4 -8zM236 467l122 12l-67 -2l-129 12l-96 97l-11 131l47 108l52 88l2 5h-4l16 36l-8 -12l-49 -80l-56 -104l4 -197l86 -80zM705 559l28 39l-16 -12l-6 -11zM907 1139l33 125l-10 2l-21 -95l13 80l-11 72l-26 31l12 -39l-8 -82l-15 41l-8 43l-18 37l-41 2l-62 -37l-49 -45
l-61 -78l-51 -59l-64 -64l-71 -78l-68 -69l-31 -6l-51 -52l-10 2l-23 -51l-43 -80l-20 -67l8 -29h18l50 8l88 29l49 25l86 53l80 53l65 47l78 64l63 51l62 55l53 47l-8 17zM981 1126l10 17l31 90l-2 121l-66 119l-32 12l71 -94l21 -117l-25 -94l-33 -86l5 2z" />
    <glyph glyph-name="colon" unicode=":" horiz-adv-x="544" 
d="M383 354l80 35l82 35l-23 -55l-51 -50l37 13l-70 -66l60 17l-25 -43l-92 -64l-55 -70l-64 -61l-92 -57l-51 -15l-53 68l-66 18l35 82l45 54l8 38l94 78l76 31l109 55l90 27l16 -10l-84 -43l-108 -54l-2 -14zM88 766l-22 22l22 70l59 57l27 43l78 35l80 58l61 34l2 -18
l-86 -68l-41 -45l90 62l72 65l33 13l20 -41l-14 -37l-29 -64l56 35l-39 -80l-86 -98l-60 -72l-90 -41l-67 -30z" />
    <glyph glyph-name="semicolon" unicode=";" horiz-adv-x="544" 
d="M514 1102l-20 -41l-2 -31l38 4l-65 -71l-55 -82l-48 -80l-73 -58l-66 -12l-53 -4l-92 37v4l22 90l35 60l2 32l80 78l70 43l73 59l84 60l43 8l-79 -74l-86 -61l-17 -33l74 57l76 64l84 78l6 -47l-21 -54zM338 246l22 67l23 -39l-21 -114l-24 -119l-53 -109l-74 -71
l-66 -25l-57 -14l-76 51l-12 10l10 72l35 68l10 34l49 70l43 41l35 76l29 98l16 43l6 -57l-28 -115l-23 -61l29 43l31 94l10 92l4 29l47 -13l14 -82l9 60z" />
    <glyph glyph-name="less" unicode="&#x3c;" horiz-adv-x="1329" 
d="M1010 -39l96 -33l94 -41l-76 13l-37 -13l-26 -2l-109 29l-57 6l111 -31l-76 13l-107 28l-18 -2l90 -43l37 -22l-94 18l-129 62l-72 30l-78 27l-100 41l-92 41l-78 45l-76 47l-78 43l-65 51l-29 19l-41 28l33 37l-4 58l-21 34l94 5l54 -15l10 17l29 71l51 39l65 78l58 37
l69 47l-26 -2l55 51l88 72l80 57l84 55l24 -2l76 78l101 82l71 47l92 60l76 51l6 -4l82 65l-39 -45l-71 -63l-82 -58l-78 -53l-123 -94l-41 -43l-59 -62l8 -4l80 76l76 70l81 57l84 60l82 55l76 65l72 66l16 12l-12 -37l-4 -32l8 -13l-53 -51l-117 -106l-12 -23l96 84
l-35 -41l-53 -51l-98 -82l26 8l84 55l76 54l-66 -74l-71 -57l-78 -62l-70 -72l-39 -51l-114 -102l-52 -47l-81 -70l-64 -53l-108 -72l-64 -31l-53 -53l-45 -8l-6 -6l96 -49l-17 32l89 -57l90 -49l55 -41l70 -49l96 -55l65 -39l99 -47l77 -37l29 -21l-6 -10l-90 35l-92 37
l-101 55l-75 45l-80 37l39 -27l84 -51l79 -49l89 -37z" />
    <glyph glyph-name="equal" unicode="=" horiz-adv-x="1339" 
d="M1022 236l-100 4l14 -21h-84l-117 -4l-80 -4l-49 20h-119l-106 15l-76 10h-108l-15 8l-110 21l127 -9l86 9l80 -4l141 -19l72 4l92 4l-113 4l-106 11l-99 10l-100 -2l-78 2l-125 10l-49 8l31 17l53 16l25 6l122 13l48 16l-119 -19l76 19l106 16l31 6l-92 9l-76 2l96 24
l107 -2l102 -4l68 10l104 15l104 16l97 6l96 -6l111 -8l71 6l17 -29l100 33v-53l-10 -49l71 -35l-4 -4l-71 -45l-80 -23l-97 -18zM1112 823l39 -30l-23 -58l52 -59l-78 -39l-82 2h-76l-70 8l-4 -22h-98l-78 -13l-71 6l-131 -4l-84 13l-105 4l-39 2h-82l97 20l90 9l106 -11
l84 -4l92 17l-123 -5l-106 11l-90 2l-78 -6l-123 -15l16 6l3 35l38 15l111 34l-14 9l-33 -7l100 27l51 12l-104 4l4 17l100 14h101l80 12l88 31l121 19h112l101 -23l69 -20z" />
    <glyph glyph-name="greater" unicode="&#x3e;" horiz-adv-x="1402" 
d="M1313 594l88 -10l2 -21l-19 -55l-45 -45l-104 -76l-64 -51l-92 -43l29 -10l-86 -45l-133 -76l-107 -58l-61 -4l-127 -59l-133 -47l-92 -27l-131 -57h-21l-96 -37l92 47l92 53l94 37l172 60l72 34l105 58l-111 -49l-121 -47l-115 -41l-110 -45l-96 -43l-115 -62l-78 -55
l39 59l12 37l10 23l103 63l74 55l-101 -61l39 33l94 63l80 43l-82 -22l-149 -74l76 67l118 54l115 51l78 45l125 78l72 53l112 72l92 41l99 49l-23 22l-72 66l-51 82l-10 -29l-47 55l-100 78l-101 68l-22 41l-115 78l-98 73l-80 50l-121 69l-8 17l-84 63l114 -68l103 -49
l88 -47l135 -100l76 -45l80 -49l-105 77l-100 74l-92 64l-117 57l-86 51l-127 70l-45 26l4 21l129 -41l21 2l151 -70l43 -6l-135 60l104 -37l127 -49l23 -2l-102 57l-50 35l115 -35l123 -66l115 -71l92 -47l123 -68l131 -82l96 -82l78 -110l43 -86l10 -11l59 -8z" />
    <glyph glyph-name="question" unicode="?" horiz-adv-x="851" 
d="M229 59l7 -18l22 -76l-20 -78l-76 -67l-47 -23l57 92l-51 -51l-45 -55l-37 82l-12 43l-27 31l33 137l96 74zM758 870l-29 -61l12 -21l-73 -116l-76 -115l-60 -35l-73 -80l-80 -67l-105 -86h-20l-6 6l80 76l67 61l97 94l59 80l-59 -55l-70 -74l-84 -78l-88 -71l-64 -74
l-4 4l-22 37l18 43l82 98l-33 -16l-6 2l74 96l-6 12l-82 -73l22 57l66 66l82 112l57 94l41 93l51 90l35 57h-29l-83 -22l-80 -58l-39 -28l-47 -25l67 80l78 61l88 29l57 35l-108 -37l-78 -41l-76 -68l-67 -84l-2 17l-6 57l10 39l51 90l-43 -55l70 102l-9 17l-82 -76l64 102
l125 86l98 62l117 43l176 -84l39 -283l-92 -113z" />
    <glyph glyph-name="at" unicode="@" horiz-adv-x="1462" 
d="M1456 518l-37 -98l-30 -74l-111 -139l-82 -41l-14 10l24 14l-63 -30l-76 -33l-27 -27l-24 2h-2l-121 7l-125 77l82 -34l24 -2l-28 38l-8 7l6 -2l-19 26l-10 72l-29 -12l-196 -31l-39 37l-115 159l33 179l92 94l88 39l160 35l98 -29l-8 -6l107 -90l-48 36l-108 56l-125 -8
l-92 -33l-125 -96l-41 -154l55 -107l15 -8l-56 117l35 137l80 78l94 41l125 27l78 -27l102 -88l54 -82l-29 39l-6 -21l-6 5l30 -35l52 -31l-13 -14l10 -11l-24 -34l8 6l-12 -10l-12 -19l-33 -63l-19 18l-2 -39l23 -10l20 -19l2 -4v2l66 45l45 11l20 24l39 68l23 57l2 62
l2 30l-16 97l2 26l-37 92l-37 52l-57 43l55 -60l10 -28l-43 53l-65 55l-70 55l-86 54l-78 20l-78 4l-47 -6l-82 -22l-65 -25l-21 10l-14 -14l-60 -55l-86 -97l-49 -65l-55 -94l-51 -103l-10 -59l6 -60l20 -63l25 -55l57 -88l94 -86l78 -58l68 -43l43 -31l-11 2l-4 -2l99 -30
l104 -19l12 -14l-79 16l-117 29l-88 49l-58 35l-82 57l-67 62l-59 76l-37 67l-27 74l-8 121l55 125l49 86l41 63l23 29l53 61l59 64l76 65h-20l-35 -39l-90 -88l-62 -67l-61 -88l-49 -86l-41 -88l-12 -68l8 -82l30 -84l48 -84l57 -72l94 -79l49 -35l74 -51l72 -41l129 -27
l104 -16l76 14l96 27l78 34l-94 -43l-103 -28l13 -13l94 21l-101 -29l-47 -24l-104 6l90 -21l-59 8l-56 7l-71 12l-156 63l-149 95l-33 24l-53 39l26 -29l117 -84l80 -47l110 -59l-75 33l-125 73l-45 25l-60 45l-104 111l-82 137l-31 90l-10 33l26 -113l23 -59l27 -49
l137 -168l80 -64l88 -57l-78 41l-96 63l-70 58l-76 98l-45 82l-43 123l-10 127l43 149l41 82l66 113l83 108l7 13l75 86l177 125l102 36l68 19l77 10l146 -8l153 -55l84 -56l47 -24l113 -101l76 -90l55 -98l43 -152l6 -96zM823 295l8 -12l-4 16zM864 233l21 -22l-17 33z
M864 621l31 28l-96 33l-39 -18l61 8l56 -19l-84 11l-66 -29l-74 -41l25 6l88 29l59 4l-32 -15l-78 -36l-47 -27l-33 -51l2 -27l16 -2l6 12l66 43l84 50z" />
    <glyph glyph-name="A" unicode="A" horiz-adv-x="1034" 
d="M514 520h-78l-51 -6l2 -27l-53 -77l-51 -50l-52 -90l-61 -92l-39 -33l8 27l47 88l58 92l24 66l-57 -88l-47 -92l-55 -78l-43 -78l-19 51l2 43l31 90l-21 -37l23 86l-35 -39l-16 17l32 90l33 90l4 8l-80 4l-106 -2l-27 19l111 16l100 -4l17 14l-88 4l-99 -8l-92 -22l25 55
l63 35l-28 -4l94 45l-60 8l41 33l103 14l84 33l94 24h20l2 37l33 66l10 55l70 96l-18 11l61 75l45 54l55 59l60 82l78 82l77 72l72 59l43 27l-37 -43l-61 -68l-72 -74l-84 -90l-45 -71l37 38l72 82l63 70l72 74l76 67l75 66l-20 -47l-25 -60l-8 -22l-45 -56v-4l19 19
l-15 -33l4 -22l-4 -17l29 29l-19 -55l-4 -3l-6 -73l-4 -101l27 97l16 6l-6 -90l-8 -103l4 -88l-6 -108l-2 -54h57l53 2l-65 -26l-47 -4v-2l-2 -13l59 5l96 20l-6 -23l-18 -36l-82 -31l6 -8l-14 -13l-80 -22l-2 -4l80 -2l-25 -27l-74 -10l-12 -25l-31 -45l-8 -18l-2 -15
l-12 -67l14 -25l-25 -98l-32 -72l-23 -84l-43 -90l-37 -82l-22 -37l6 56l31 90l45 117l2 51l-29 -96l-41 -95l-31 -77l-10 -105l-22 2l-33 43l12 115l-16 -43l-4 49l12 82l-43 -103l-4 74l28 94l5 93v90l28 114l19 39zM856 1284l-6 -67l18 81zM719 1083l-10 -61l4 -84
l16 121l14 78zM559 827l-37 -41l56 2l45 -4l-7 2l19 107l16 53l-30 -47z" />
    <glyph glyph-name="B" unicode="B" horiz-adv-x="976" 
d="M203 -59l-88 -13l-119 -20l-49 2l45 16l-10 19l-86 -23l4 23l2 39l65 20l19 57l32 91l-36 -80l14 55l39 117l-25 -27l-47 -94l2 55l43 105l23 75l22 101l13 90l22 80l14 100l35 98l43 93l6 2l27 67l25 62l-9 28l13 39l-90 -24h-48l-12 8l111 37l49 14l4 14l-96 -32
l-101 -27l-51 -21l17 35l14 39l115 49l-37 -6l18 17l90 49l-30 4l-86 -23l84 49l108 41l66 35l39 66l34 47l-10 -47l-16 -35l20 10l2 2l31 66l18 31l29 -35v-23l16 6l132 33l59 2l29 14l75 9l148 -70l69 -113l-4 -122l27 28l-33 -127l-98 -139l-64 -66l-51 -22l-114 -82
l-76 -37l92 -39l102 -119l47 -165l-49 -132l-104 -106l-92 -39l-74 -14l-53 -58v-28l-119 -70l-70 -18zM834 965l-105 -86l-88 -45l-72 -46l17 -4l30 19l113 57l64 55zM371 807l-2 -14l18 4l64 30l84 68l-35 -12l-66 -33l4 14l41 41l111 74l69 47l48 66l43 61l34 45l17 62
l4 32l-19 -8l-22 -2l-57 -16l-62 -33l-33 -19l-82 -32l-26 -2l-4 -52l-15 -90l-36 -110l-48 -74l-24 -27zM463 811l-23 2l-41 -14l50 8zM365 778v-6l14 6h-14zM414 688l-80 -29l10 -10v-10l70 16l73 -8l115 -49l19 -14l20 -13l-53 50l-92 36l-50 35l-22 -6zM240 330
l-50 -129l-28 -43l16 10l80 61l74 50l71 45l70 36l27 33l22 -22l41 24l17 11l26 49l-10 -4l20 32l-28 47l4 33l-41 23l-82 30l-82 7l-43 -5v-30l-37 -115l-28 -53zM98 129l-4 -8l17 6l18 39l64 131l14 51l24 82l-43 -106l-43 -105zM70 82l-9 -14l27 16l2 2zM-6 -74l18 8
l103 27l121 29l61 41l-109 -43l-92 -21l-90 -16z" />
    <glyph glyph-name="C" unicode="C" horiz-adv-x="835" 
d="M821 82v45l-10 -51zM162 1001l-2 48l26 65l58 84l12 33l78 74l84 55l98 45l94 41l-16 37l119 18l94 -104l37 -80l33 -43l12 -98l14 -103l-20 -78l-25 -127l-35 -96l-26 -45l-27 -31l33 109l35 104l10 107l-8 35l-13 -125l-28 -97l-33 -94l-39 -102l-12 24l-23 37l21 90
l-8 4l-7 9l9 110l-27 -61l-23 -27l13 105l4 82l-19 65l-20 70l-14 96l-3 8l-20 -16l-59 -47l-39 -74l-15 -14l-28 -47l-35 -60l4 -20l-55 -105l-27 -26l6 -45l-35 -62l-26 -70l8 -26l-33 -90l-37 -51l-32 -101l-13 -65l4 -11l-8 -26l15 -64l14 -39l18 11l21 -41l12 4l49 -13
l76 29l43 37l76 94l22 12l37 27l-61 -86l-64 -84l-84 -49l-57 -18l33 -3l78 29l59 58l65 88l56 69l18 33l14 -31l17 -33l-49 -75l-15 -49l37 63l-37 -82l-47 -88l78 96l14 -8l-57 -100l-110 -94l-111 -52l-129 -24l-184 117l-52 106l-10 121l33 98l8 109l16 121l15 98l39 88
l4 6h-4l43 94l30 90zM512 1368l-100 -61l8 -4l102 55l90 47l9 2l4 6l-2 8l-19 -8zM190 498l-20 -35l-23 -76l15 2l2 -6l8 43z" />
    <glyph glyph-name="D" unicode="D" horiz-adv-x="1079" 
d="M315 -23l-104 -30l-98 -23l-97 -16l-59 -2l45 18l10 4l-4 13l-4 4l-82 -19h-20l8 41l33 25l53 31l2 4l-43 -17l43 23l8 33v4l-12 -2l-4 -25l2 25l-25 -7l25 13l6 59l20 98l-45 -104l-18 -8l22 102l35 101l21 84l22 102l31 102l37 84l51 84v2v2l29 88l26 68l4 47l23 64
l37 90l39 55l4 8h-12l-72 -2l-23 17l88 22l31 -2l4 10h-14l-86 -8l-92 -27l30 56l39 32l-8 5l74 43l-23 14v27l101 12l65 33l21 39l30 43l-20 -72l16 2l19 39l41 92l6 -39l18 -41l-12 -43l18 4l95 -12l39 -21v2l100 11l76 -33l106 -82l39 -96l17 2l22 -123l2 -133l-22 -70
l-41 -112l-25 -46l14 21l-28 -94l-62 -84l-49 -72l-72 -96l-57 -72l-67 -74l-37 -28l-4 -23l-62 -39l-47 -65l8 -27l-121 -80zM997 897l-2 -6v-4zM950 782l2 -22l15 22l-4 -10l2 6l24 70l2 16zM760 668l10 20l-35 -37l-51 -63l57 51zM385 1249l-6 -14h16l6 14h-16zM371 1204
l-13 -45l23 45h-10zM233 324l-45 -107l-36 -72l10 2l63 48l68 57l45 27l29 26l2 17l55 51l53 57l37 55l10 23l88 92l54 29l59 59l2 2l23 43l32 60l35 94l6 78l-8 63l-6 57v2l-21 11l-16 71l-6 62l-18 16l-78 -10l-19 -16l-39 -29l-63 2l-4 -10l-19 -109l-18 -96l-37 -88
l-45 -84l-20 -27v-4l-29 -61l-17 -62l-30 -88l20 -6l-43 -102l-35 -88zM106 152l-8 -29l15 6l14 37l57 119l21 67l-15 -20l-43 -92zM86 -45l113 22l84 37l-64 -16l-102 -29l-80 -16l-6 -19z" />
    <glyph glyph-name="E" unicode="E" horiz-adv-x="890" 
d="M41 645l68 27l2 10l-21 20l47 35l41 13l35 51l18 8l2 4l-10 33l37 65l25 66l-6 29l34 75l6 19h-4l-79 10l-76 12l82 17l90 -9l6 21l-47 4l-88 -6l-78 4l35 49l51 21l-14 6l73 39l-80 4l119 33l66 18l47 57l45 4l27 48l36 49l37 26l-47 -88l-14 -26l14 2l33 63l41 78l6 -8
l27 -39v-33l-9 -24h11l65 6l80 -13h105l108 -8l64 -14l-43 -6l-93 -6l-112 4l-70 -15l103 -2l100 2l111 -6l83 -4l-32 -39l-35 -16l-107 -21l52 2l-101 -24l58 -10l-7 -25l-86 -10l-96 -21l-98 -30h-10l-25 -21l-53 -18l-4 -2l-6 -33l-17 -82l-39 -102l-26 -46l32 2l62 -14
h113h94l71 -10l-90 -16l-88 -7l-112 -6l2 -10l112 4l90 6l103 2l2 -20l-8 -37l-97 -18l52 6l-76 -35l-19 -23l64 -2l-100 -28l-82 -19l-105 -26l-41 -7l-24 -24l-66 -21l-4 -37v-24l-57 -123l-11 -27l56 7l92 12l94 6l111 16l49 -2l-37 -16l-88 -25l-121 -12l-76 -22l60 6
l102 12l105 22l92 15l20 -4l-14 -39l-27 -23l-80 -37l58 17l-95 -45l7 -15l75 11l-90 -43l-104 -25l-80 -37l-21 -20l-53 -25l-82 -35l-28 -10l-93 -37l-18 -2l-12 -20l-41 -78l-27 -35l2 29l39 92l4 10l-12 -2l-25 -51l-43 -92l-30 -78l-4 53l-5 55l-4 19l31 86l-14 -2
l-11 -23l7 23l-33 -4l-78 -4l-29 10l93 24l16 3l2 12l-31 -6l-92 -21l-41 -4l21 49l59 37l-16 2l34 29l39 26h-67l86 35l51 21l16 22l25 68l22 92l21 74l39 94l-62 12l72 13l2 6l2 4l-22 -2h-101zM104 53l11 4l-9 2z" />
    <glyph glyph-name="F" unicode="F" horiz-adv-x="892" 
d="M416 1139l-99 -13l-94 -16l6 35l37 37v8l74 45l-47 8l33 33l108 29l80 36l55 13l9 14l45 98l22 27l12 8l-34 -96l-17 -43l12 2l11 27l37 79l30 101v-25l37 -6l2 -39l-28 -110l2 -7l8 2l18 58l-12 -58l14 5l78 -9l117 7l92 -9l51 -14l-37 -10l-90 -2l-121 -8l27 -5l117 -2
h94l96 2l-49 -45l-43 -18l-8 -12l-33 -21l-43 -24l62 -11l-113 -20l-88 -27l-103 -35l-69 -10l-10 -26l-25 -95l-16 -84l-31 -90l-33 -73l55 24l93 23l94 20l39 -8l-105 -33l-112 -35l-80 -39l10 -4l111 45l94 31l98 25l25 2l-9 -45l-32 -27l-54 -35l17 2l-88 -53l76 16
l6 -24l-84 -37l-80 -51l-84 -64l-76 -43l-14 -4v-2l-37 -112l-25 -80l-39 -60l-45 -102l-43 -78l-45 -100l-16 -25l-39 -65l29 84l28 86l49 98l43 90l25 90l-27 -59l-41 -90l-43 -86l-38 -101l-35 -86l-27 -94l-2 41l-25 25l-4 34l27 113l-6 12l-23 -75l15 90l30 116
l-28 -45l-45 -114l10 98l39 102l33 88l16 97l6 51l-106 -17l-27 17l100 26l39 9l4 10l-90 -23l-90 -22l-14 31l55 53l-29 2l95 57l-84 -10l88 53l90 51l59 43l6 2l17 33l14 35l14 66l31 73l-14 8l28 82l37 101l23 35h-70l-67 2l32 20l107 10l20 4l5 11h-33zM494 1139v-2l2 2
h-2z" />
    <glyph glyph-name="G" unicode="G" 
d="M313 1139l-4 51l17 63l57 97l115 55l53 -27l16 21l-47 24l90 43l90 58l105 -25l12 -35h8l43 15l170 -47l37 -48l49 -38l39 -58l8 -41l-34 41l26 -49l2 -8l15 -21l-9 -8h-2l15 -82l-4 -76l-21 91l-16 63l-15 -2l19 -66l6 -106l-20 -2l-37 6l-23 96l6 -47l-35 64l-24 14
v-51l-39 74l-35 28l-39 11l-24 2l-58 -37l-84 -31l-47 -27l-37 -6v-8l13 -45l-68 -70l-74 -65l-69 -47l33 57l67 76l-49 -43l-12 -17l-39 -36l-23 -62l-16 -82l-17 -80l5 -16l-23 -82l-25 -66l-20 -88l-18 -98l-9 -92l-4 -29l68 8l67 9l41 24l58 58l6 30l61 66l60 33l69 63
l29 31l-80 49l-70 47l11 16l88 -43h33l-86 48l-97 32l41 43l64 13l22 8l-39 31l105 -7h86l86 -24l39 -43l12 -41l45 35l27 -90l-19 -72l-18 -88l-39 -84l14 -12l-53 -97l-39 -88l-43 -47l-59 -110l-39 -54l-35 -88l-23 -43l5 39l20 90l43 74l53 96l29 78l-47 -86l-55 -96
l-35 -70l-31 -86l-25 -104l-6 30l-26 33l-6 25l12 102l-12 -51l-5 47l27 109l-27 -29l-36 -98l10 106l20 41l-6 -4l-55 -16l-70 -27l-16 -10l-6 -6l-25 -15l-10 -6l-8 -2l-33 -18l-12 2l-35 -15l78 11l135 67l-76 -72l-121 -38l-160 -13l-129 80l-67 180l-2 95l12 102l33 96
l41 103l51 94l6 4l21 74l16 49l-57 -88l-19 -15l31 95l55 98l37 76l64 116zM213 92l2 10l-6 4l-27 66l19 -72zM756 475l-51 -37l24 11l27 24v2zM424 209l-51 -19l63 17l-2 10zM309 457l8 80l-18 -52l-20 -104l-5 -100v-82l17 14l-4 37v82z" />
    <glyph glyph-name="H" unicode="H" horiz-adv-x="1060" 
d="M-45 711l37 18l86 25l-29 -2l84 18l2 6l-74 8l25 27l59 2l11 39l43 92l37 64l10 12l4 29l6 55l35 76l43 55l49 100l55 92l33 41l-14 -63l-56 -100l-32 -80l32 49l48 88l45 90l22 43l31 -47l-17 -82l29 51l-20 -108l30 32l19 -24l-37 -92l-14 -101l-19 -90l-53 -86
l-21 -20l-10 -49l-16 -37l65 -4l15 -2l2 6l121 4l59 -10l8 22l8 16l-8 25l51 68l9 65l-19 21l49 112l35 60l35 84l53 96l62 96l34 35l-16 -41l-41 -92l-59 -105l-21 -79l29 63l45 92l49 94l53 82l13 11l24 -37l-2 -37l-27 -92l23 55l-29 -107h17l45 74l-31 -104l-25 -76
l-16 -111l-24 -96l-31 -72l-41 -90l-12 -49l-7 -14l78 -12l49 -13l-55 -8l-82 4l-4 -12l80 -6l96 -6l-2 -13l-33 -37l-47 -12l-41 -10l9 -6l-93 -17v-2l58 -10l16 -20l-76 -7l-2 -16l-39 -100l-32 -88l-31 -47l-41 -91l-43 -100l-33 -80l-39 -94l-39 -98l-12 -8l-45 -78
l39 88l22 88l31 86l51 125l31 69l27 86l-17 -28l-39 -90l-39 -90l-34 -93l-33 -100l-37 -88l-39 -94l-14 -23l-13 19v65l-2 19l29 96l14 82l-22 -82l-2 10l12 78l25 117l-23 -43l-37 -105l-10 10l16 89l29 100l39 106l14 70l29 109l23 88l-31 -4l-86 4l-68 4h-57l-14 -29
l-41 -84l-54 -90l-30 -68l-37 -108l-21 -27l-16 -10l33 106l24 86l60 107l24 59l6 35l-47 -96l-45 -78l-28 -94l-33 -90l-33 -103v21l-33 10l-6 33l25 113l-4 34l-19 -90l8 94l19 113l-29 -65l-29 -91l5 103l38 112l39 95l6 39l-57 6l-45 12l33 10l78 4l2 11l-19 2h-98
l-76 6z" />
    <glyph glyph-name="I" unicode="I" horiz-adv-x="604" 
d="M-37 57l-8 41l27 84l30 80l29 115l8 61l12 88l25 101l29 71l28 72l37 88l21 35v4l6 4l18 29l21 12l8 45l-18 17l36 96l43 76l45 59l39 70l58 98l24 29l2 -19l-34 -80l-52 -98l-26 -59l24 26l39 70l45 98l35 78l16 45l31 -27l10 -34l-20 -91l27 62l-21 -88l4 -39l43 84
l-8 -74l-33 -98l-31 -92l-12 -62l-26 -88l-45 -88l-39 -31l-4 -12l-13 -43l-20 -63l-11 -76l5 -10l-37 -76l-23 -60l-28 -73l-27 -49l-29 -95l-41 -108l-35 -64l-36 -82l-11 -20l-22 -84l2 41l12 86l29 76l47 92l37 110l12 58l12 57l-30 -88l-33 -100l-37 -86l-35 -80
l-26 -66l-17 -98l-22 -82l6 55l-21 -2l-14 43v25l14 121l-4 22l-16 -104l2 71l18 82l23 78l-33 -55z" />
    <glyph glyph-name="J" unicode="J" horiz-adv-x="675" 
d="M309 672l39 73l10 41l-6 35l31 76l20 57l11 64l10 47l29 65l-45 7l-109 -13l-57 9l84 24l106 17l8 14l-88 -14l-102 -19l-41 2l10 49l66 41l-11 6l25 29l-20 23l98 34l86 41l86 25l65 10l41 72l31 37l-10 -39l-29 -66h17l26 49l35 88l4 -8l33 -26l2 -35l-29 -103l33 80
l-20 -84l-13 -57l2 -6l43 72l8 -33l-32 -84l-35 -113l-25 -90l-22 -80l-37 -90l-27 -43l-8 -37l-8 -76l-23 -90l19 11l-27 -78l-41 -111l-28 -86l-39 -47l-35 -84l-41 -102l-41 -84l-25 -52l-2 -32l-20 -56l-62 -53l-4 -10v4l-10 -8l-16 12l-27 -74l4 21l-20 2l-6 65l-5 17
l2 4l-10 8l-37 53l-28 2l-70 95l-25 73l-38 76l-33 68l12 6l55 -72l47 -76l-6 31l-49 80l-57 82l-4 27l45 14l71 -55l-8 20l51 -31l-22 58l74 -66l78 -84l22 82l23 88l32 111l19 86zM369 264l-35 -94l-35 -80l8 -12l2 8l47 113l39 96l21 57h-6z" />
    <glyph glyph-name="K" unicode="K" horiz-adv-x="958" 
d="M98 541l21 108l31 80l36 98l45 88l13 7l14 71l-18 17l39 110l34 60l39 84l64 102l43 66l30 41l-6 -33l-24 -72l-68 -102l-24 -78l24 43l55 98l43 74l37 92l15 33l34 -27l-2 -49l-12 -88l19 59l-19 -100l8 -16l43 86l-16 -101l-45 -90l-21 -115l-18 -86l-10 -30l28 24
l58 31l59 49l98 86l58 45l98 78l19 4l67 43l-67 -57l-66 -66l-72 -59l-104 -90l-31 -35l-31 -33l84 70l78 69l72 60l80 67l74 66l75 70l-39 -66l-2 -33l-10 -26l-74 -80l-24 -41l78 82l-50 -64l-81 -92l24 8l76 62l-2 -21l-57 -67l-76 -76l-66 -78l-67 -74l-45 -59l-68 -72
l-86 -71l-39 -31l29 8l98 -43l59 -49l101 -68l82 -84l22 -45l-6 -8l-76 72l-96 82l-78 35l78 -54l82 -65l68 -74l67 -86l-29 -2l-49 14l-65 52l35 -41l-80 51l-17 -10l31 -46l-68 37l-75 41l-92 21l-89 22l-84 47l-6 5l-6 -13l-33 -110l-43 -90l-30 -97l-45 -102l-23 -62
l-22 -55l4 47l20 88l33 92l45 121l29 70l20 102l-24 -80l-45 -100l-29 -90l-35 -100l-27 -68l-28 -119l-13 -33l-18 9l-4 84l-6 14l24 135l-12 -8l-16 -82l8 92l29 123l-21 -31l-37 -98l-8 29l20 86l29 116l27 84l12 113z" />
    <glyph glyph-name="L" unicode="L" horiz-adv-x="667" 
d="M84 524l43 74l45 90l43 60l21 57l-9 22l29 76l49 105l39 61l39 61l51 101l41 76l60 102l16 10l49 51l-47 -79l-45 -93l-59 -104l-35 -76l-29 -78l43 78l47 92l45 88l47 91l49 84l52 92l-4 -56l-15 -79l2 -19l-39 -96l25 41v-13l-27 -92l-4 -34l47 81h15l-25 -81l-41 -101
l-18 -63l-41 -123l-33 -96l-31 -68l-4 -10l-2 -21l-12 -14l-21 -47l-39 -74l-28 -35l-25 -57l-12 -35h-2l-6 -10l37 35l-43 -86l-48 -95l-20 -67l-21 -41l-20 -78v-78l2 -28l21 -11l124 19l54 18h18l57 12l-102 -45l-70 -22l-86 -12l-47 36l-4 68l-2 59l6 70l-16 -100v-86
l27 -47l71 -9l101 21l73 29l90 55l54 49l-43 -61l14 -19l-14 -31l-45 -34l-142 -66l-37 -20l115 41l-29 -23l-69 -25l-166 -14l35 -18l129 10l112 27l-116 -54l-133 -14l-166 127l-25 147l-4 84l12 119l25 115z" />
    <glyph glyph-name="M" unicode="M" horiz-adv-x="1263" 
d="M0 -39v92l27 105l26 121l21 98l6 53l12 100l35 107l16 74l11 22l2 25l24 98l-22 2l30 96l29 101l37 47l33 106l35 95l45 88l16 20l31 53l-23 -78l-39 -92l-6 -18l14 6l39 94l25 74l31 106l6 -55l14 -57l4 -23l-14 -96l18 68l-2 -58l-12 -53l14 -10l39 96l-14 -106l-4 -21
l8 -49l16 -80l21 -29l16 -63l25 -109l-6 -59l24 -94l2 -8l45 61l35 66l58 102l49 82l53 76l68 77l69 62l57 72l29 4l49 71l17 -18l4 18l33 31l-17 -74l10 -12l13 62l20 83l25 -43l14 -49l2 -78h2l4 54l4 -119l15 -6l26 90l-4 -119l-24 -108v-84l-13 -103l-24 -92l-39 -86
l-6 -8l-6 -19l-17 -61l-12 -88l4 -10l-23 -99l-20 -90l-35 -57l-37 -107l-32 -81l-31 -93l-29 -94l-18 -31l-15 -12l25 98l23 99l38 106l23 66l29 108l-39 -104l-37 -90l-27 -84l-24 -103l-27 -92l-23 -94l3 45l-35 6l-6 29l16 102v72l-14 -111v78l14 115l-16 -21l-25 -92
l-14 25l12 90l27 106l20 84l16 111l9 92l20 103l37 100l39 80l22 41v16l-45 -61l-49 -41l-49 -62l-78 -98l-53 -57l-80 -88l-6 -7l8 -30l-24 16l-27 -27l-43 -47l29 54l22 30l-12 9l-33 -35l-57 -86v8l-17 12l-2 49l19 37l49 74l-4 10l-6 -8l2 -8l-4 6l-11 -10l9 14l-21 29
l-4 -4l2 6l-6 8l-41 82l14 -78h-22l-27 70l-33 82l-20 -50l-10 -38l2 -25l-23 -100l14 -9l-16 -75l-24 -109l-35 -57l-37 -88l-35 -99l-35 -98l-33 -88l-18 -25l-16 -20l24 98l25 76l47 141l16 62l13 51l-41 -104l-31 -97l-35 -108l-25 -74l-20 -102l-4 6l-27 6l-22 26
l18 105l-2 57l-16 -98l4 84l20 115l-24 -43zM1245 1362l-2 -6v-8zM651 561v-18l54 65l92 107l39 55l38 66l-51 -66l-71 -90l-60 -68zM643 535l-4 10l-12 -15l4 -12zM629 709l-8 -7l2 -4zM596 682l-4 -4l-8 -10l6 -23l10 19zM563 809l-26 80l12 -82l24 -90l5 -15l10 15z
M528 598h-2l13 -39l4 8zM293 1106l-2 -25l4 6l-2 21v-2z" />
    <glyph glyph-name="N" unicode="N" horiz-adv-x="1075" 
d="M-4 330l20 90l25 104l31 101l39 80l39 75l-17 19l41 80l19 82l-13 24l39 94l19 33l-9 74v80l-4 41l2 22l35 -80l2 -86l12 29l-2 37l-18 84l-43 96l23 4l40 -12l58 -92l-23 53l39 -49l4 6l15 20l-7 23l9 -16l43 65l30 35l-20 -64l-37 -67l8 -15v3l54 88l43 102l14 -18
l20 -41l-34 -107l20 31l-2 -39l-33 -98l62 100l-7 -72l-45 -86l-16 -71l-2 -15l6 -14l29 -68l31 -88l20 -104l-4 -62v-2v-14l18 -66l21 -81l22 6l21 -101l6 -20l25 74l10 20l28 64l23 73l35 84l-21 8l47 101l35 94l45 53l41 88l43 78l51 98l23 23l20 20l-36 -92l-39 -82
l-60 -118l-24 -66l26 41l39 78l43 88l41 90l39 92l17 39l14 -29l22 -30l-30 -105l-2 -43l24 72l-22 -96l-17 -68l47 84l15 -10l-27 -84l-35 -96l-26 -95l-17 -75l-32 -117l-50 -90l-4 -8l-12 -54l-33 -90l21 -8l-47 -100l-35 -93l-39 -40l-45 -107l-29 -53l17 -53l-5 -29
v-53l-24 94l-4 8l-8 -14l2 -2l22 -97l27 -90l-29 23l-47 49l-20 35l-3 6l-20 -19l-27 -24l29 57l-8 15v-2l-47 -97l-17 -39l-14 27l-25 29l43 108l-10 12l-12 -30l10 37l-18 26l-6 17l-7 2l2 6l-32 80l-33 78l-49 94l-43 108l-21 99l-14 92l-18 -41l14 -13l-43 -92l-35 -88
l-37 -35l-41 -108l-39 -76l-47 -98l-22 -25l-2 13l30 92l41 92l43 104l23 70l-37 -68l-39 -96l-39 -92l-37 -82l-26 -96l-2 28l-31 23l-8 29l26 102l-20 -43v33l22 102l-18 -16l-43 -107l10 97zM717 150l-4 -11l2 -2l4 -16l39 78l20 69l-18 -26zM694 98l-8 -14l6 -16l6 14
l2 2zM639 -8l-2 -6l6 -15l4 6zM578 33v22l-5 -12zM565 100l-2 -6l6 -35v-2l4 17l2 8zM373 1290l-2 -6l6 -10l4 8l-4 14z" />
    <glyph glyph-name="O" unicode="O" horiz-adv-x="862" 
d="M117 737h26l-14 51l33 68l18 76l-14 26l43 99l45 96l61 66l68 79l90 78l51 21h27l-57 -43l38 10l17 10l94 51l-8 -30l-6 -21l80 -24l63 -78l39 -109l-2 56l-64 141l3 12l77 -110l27 -109l10 -123l-2 -104l-14 -142l-10 -71l-45 -123l-39 -84l-54 -94l-65 -86l-55 -72
l-31 -10l-21 -33l-6 -21l-45 -96l-82 -92l76 55l82 127v-28l-47 -101l-113 -96l-131 -41l-143 27l-111 219l-6 72l2 120l8 88l29 113l47 90zM508 176l2 8v-2l-14 -8v-2zM627 1368l-4 -18l96 -33l16 -4zM569 1309l-30 -23l28 17l-6 -13l17 4l59 -12l39 -68l14 -79l-2 -131
l-4 -64l-16 -88l22 84l15 96l-3 101l-14 84l-39 71l-61 25zM379 1243l-51 -72l4 -12l67 86l66 74l14 8l-4 6v6l-12 -8zM240 129l-7 -4l43 2l54 23l55 59l4 8l-41 -20l17 71l18 92l43 54l43 84l27 37l43 98l-39 -37l47 86l43 94l18 74l27 39l16 94l6 102l-4 72l-16 78l-27 35
l-2 8l-49 4l-4 -6l-43 -70l53 43l10 -22l-40 -56l-50 -81l-24 -86l-27 -89l-39 -86l-43 -75l-28 -27l4 -59l-33 -68l-14 -80l-23 -49l-6 -78l24 41l-14 -92l-8 -119l-2 -67zM209 96l-14 41l12 -49l53 -12l76 26l61 54l29 49l-8 8l-35 -57l-64 -47l-86 -19z" />
    <glyph glyph-name="P" unicode="P" horiz-adv-x="999" 
d="M45 367l-10 10l71 41h3l10 41l14 90l2 61l23 92l24 97l21 82l12 32l-14 39l45 62l16 53v6l2 -2l4 14l-6 9l-4 -2l-47 -2l-4 8l53 18l10 19l-26 -9l-99 -45l-6 4l-14 31l31 33l106 51h-24l-7 2l99 47v13l-107 -31l43 39l105 35l10 6l10 12l49 80l52 90l28 31v-19l-31 -82
l-55 -92l23 10l16 29l43 88l37 80l22 41l27 -25l6 -38l-20 -89l24 62l-16 -88l2 -12l12 2l31 59l-6 -57l63 6l95 -8l149 -60l72 -125l-17 -67l-8 -31l6 -45l6 61l5 -110l20 35l27 18l-17 -106l-39 -101l-43 -96l-61 -88l-86 -58l-2 -16l-64 -59l-57 -49l-74 -54l13 -16
l-113 -64l-86 -43l-76 -12l-45 -12l-18 -39l-37 -92l-43 -90l-31 -68l-53 -121l-41 -63l-14 -8l-35 -39l53 90l37 90l33 82l51 112l37 82l16 50h-6l-6 -5l-10 -22l-39 -88l-37 -84l-35 -88l-39 -92l-47 -80l-41 -76l-18 -51v61l-19 10l-8 11l29 61l55 127l-4 27l-39 -107
l14 49l17 64l30 113l-22 -39l-37 -86l-27 -47l15 83l28 86l33 99l6 12h-24h-35l67 25l7 16l-17 -6l-94 -35l-43 -16l8 28l6 37l92 41l45 33l-75 -33l82 47l28 17v4l2 8zM897 1083l-4 -41l-41 -71l-33 -66l60 80l28 68l6 32zM573 1210v-4l25 6zM403 729l-14 -94l21 22
l-11 -69v-8l33 22l80 45l82 43h2l27 70l34 12l45 43l-2 25l54 71l53 45l43 62l18 61l-20 -2l-12 4l-21 47l-8 25l-12 8l-27 4l-6 -16l-113 14l-33 -2l-55 4l-22 -73l-41 -82l-52 -78l-6 -4l4 -19l-24 -53l-4 -78zM326 338l-2 -6l43 18l-39 -8zM268 326l-6 -17l6 2l4 17z" />
    <glyph glyph-name="Q" unicode="Q" horiz-adv-x="839" 
d="M236 1028l22 76l59 88l-32 -10l63 82l90 108l107 68l73 6l82 -43l-96 2l-29 -16l166 -15l64 -108l29 -117l2 -107l-25 -69l-4 -33l-19 -96l17 47v-33l-25 -94l-2 -29l45 88l17 6l-23 -88l-49 -108l-14 -62l-21 -122l-31 -107l-8 -20l23 -99l-8 -69l18 -95l16 -110l5 -84
l-13 -39l-14 92l-19 90l-22 117l-21 80l11 -96l22 -105l17 -94l18 -96l2 -25l-41 4l-24 29l-33 86l12 -60l-31 66l-28 61l10 -92l-33 35l-26 94l-17 41l-39 -30l-30 -23l-50 -12l-2 8l-35 -21l-167 -12l-146 119l-41 88l-8 154l8 94l35 135l29 78l30 90l43 94l45 82l15 51z
M317 115l7 18l-31 -12l-76 24l-20 31l-13 62l-6 -27l19 -64l45 -36l73 2zM324 0l63 20l-8 23l-49 -35zM289 518l33 37l-35 -90l-31 -115l-10 -69l-19 -45v-46l17 -28l35 -8l57 14l22 20l39 62l19 26l-6 19l-23 20l-8 113l20 78l4 96l7 94l16 33l10 -100l-2 -47l15 2v10
l-5 102l-6 99l45 -33l27 -53h8l27 -58l18 11h2l21 57l47 84l49 90l29 55l22 49l-12 -67l-23 -72l-39 -78l-69 -129l6 -35l16 52l50 92l43 88l32 63l-12 9l29 71l4 64l2 10v4v14l-2 -14l-17 35l-26 90l-2 -29l6 -110l-23 39l-8 69l-37 70l-30 -27l-23 -37l-57 -84l-52 -63
l-40 -66l-48 -79l-8 -5l-10 -88l-31 -36l-14 -60l-16 -55z" />
    <glyph glyph-name="R" unicode="R" horiz-adv-x="1044" 
d="M37 391l84 49l-45 -16l47 29l4 12l2 10l-18 -2l-15 19l43 18l11 35l22 100l12 10l11 50l26 77l-10 17l18 65l39 121l27 49l-39 -22l-39 -17l27 33l69 51l9 19l-13 -8l-78 -46l-69 -67l2 18l-6 45l10 29l68 74l-68 -58l65 72l35 41l-84 -49l25 47l84 64l96 57l31 18l33 74
l18 16l35 52l-37 -91l-10 -28l20 12l10 27l39 96l29 61l10 -30v-72v-27l-6 -26l39 14h129l119 -43l55 -51l78 -90l-16 -6l24 -33l31 -133l12 71l-16 93l43 -129l-17 -134l-28 -102l-51 -113l-68 -100l-102 -80l-109 -45l-25 -2l-51 -31h-2l66 -34l61 -62l72 -74l67 -79
l5 -31l-78 74l-88 86l-76 41l78 -64l75 -70l74 -73l35 -41l-51 -8l-51 24l-13 -2l-30 8l-50 15l48 -54l-82 41l-78 47l-82 23l-94 39l-54 45l-12 -35l-14 -92l-27 -53l-22 -119l-27 -90l-31 -107l-16 -20l-27 -51l23 94l20 94l35 127l8 68l-8 4l-22 -99l-25 -94l-20 -102
l-25 -94l-12 -93l-21 25l-20 76v41l4 100l-10 -92l-5 72l7 112l-19 -47l-24 -88l-2 96l16 105l8 82l-2 110l4 51h-10l12 9l2 24l-20 -6l-94 -35l28 47zM958 1223l-6 -2l31 -50zM891 1186l-8 -15l20 -45l-14 -96l-29 -67l-29 -70l50 86l28 84l-2 82zM457 729l-27 -65l92 26
l31 6l25 11l63 45l51 34l-8 15l59 67l41 66l43 39l33 78l12 67l-8 29l-4 -6l-61 6l-37 14l-60 17l-26 -15l-41 -8l-66 -16l-16 -2l-8 -27l-15 -78l-18 -112l-25 -95zM369 1126l-7 -20l15 8l2 2l8 21zM354 1067l-12 -49l20 53z" />
    <glyph glyph-name="S" unicode="S" horiz-adv-x="784" 
d="M20 717l-55 26l55 19h3l2 90l49 66l51 69l57 55l-10 13l59 63l91 80l59 33l76 57l100 64l76 43l92 51l37 10l10 -4l-86 -57l-76 -52l-121 -71l-47 -45l-16 -23l88 66l88 55l88 57l76 45l100 56l-22 -21l14 -30l-27 -29l-88 -72v-14l54 41l-68 -64l-76 -71l74 43l59 28
l-67 -67l-86 -62l-60 -57l-73 -82l-60 -68l-55 -57l-72 -67l-67 -50l61 -18l82 -14l39 6l88 -23l70 -33l24 -28h2h25l-16 -12l8 -11l47 33l16 -2l25 -39l-25 -25l19 -8l-19 -20l17 -17l32 -51l-71 41l-6 -6l45 -35l39 -35l-50 -26l-12 -4l-61 6l-19 -14l27 -31l-37 18
l-45 -57l-64 -84l-14 -12l-2 -7l-10 -6l-37 -37l-59 -47l-11 -28l-75 -62l-64 -24l-104 -74l-72 -47l-51 -33l-37 -10l76 69l100 68l63 55l-40 -20l-93 -62l-69 -61l-82 -63l-8 10l-11 43l52 61l-19 -10l10 31l50 71l-82 -69l32 71l90 78l78 84l52 64l77 59l19 10l22 37
l41 49l27 21l-62 26l-49 43l-78 43l-102 50l-25 32l103 -41l102 -47l70 -24l-55 35l-86 38l-95 41l-32 15l-7 -6v8zM203 762l-4 -2h12zM66 770l-7 -8h2h19z" />
    <glyph glyph-name="T" unicode="T" horiz-adv-x="712" 
d="M117 1237l-86 -6l104 47l78 49l80 23l26 2l9 12l75 20l72 23l14 35l-6 -31l27 4l10 45l10 33l19 -16l20 -47l-2 -7h49l86 4l93 5l100 -13l14 -14l-114 -4l-111 -8l-61 -21l108 10l103 15l112 -8l10 -11l-8 -45l-102 -12l61 -6l-86 -25l6 -16l21 -19l-86 -24l-96 -33
l-91 -31l-26 -94l-17 -82l-24 -127l-21 -88l-28 -86l-45 -92v-2l-11 -25l-10 -36l6 -54l-14 -71l-33 -109l-39 -53l-41 -109l-36 -76l-35 -94l-25 -53l10 80l27 90l51 113l19 71l-21 -34l-39 -95l-35 -90l-30 -98l-19 -94l-22 12l-25 47l17 113l-9 8l-6 -4l12 106l-18 -16
l-33 -82l8 98l31 101l19 102l10 88l20 88l4 12l5 31l26 84l31 70l2 43l6 35l41 108l29 74l32 45l27 88l-43 -23l-57 11l-111 -15l-74 2l15 17l123 14l28 21l-104 -11l-96 -18l-41 16l39 47l2 11zM367 1073l-15 -65l2 -25l35 107l19 51l-17 -8z" />
    <glyph glyph-name="U" unicode="U" horiz-adv-x="1167" 
d="M1165 1157l-35 -84l-40 -94l-39 -100l-29 -76l-4 -27l-17 -65l-32 -80h16l-22 -68l-43 -110l-33 -82l-35 -39l-37 -103l-51 -90l-31 -76l-49 -120l-43 -70l-20 -27l-9 9l43 88l39 106l37 98l55 99l21 69l10 50l-43 -113l-49 -90l-33 -84l-39 -111l-41 -71l-41 -99
l-20 -41l-8 31l-2 61v25l37 100l12 68l-29 -90l8 39l15 78l18 100l-24 -59l-43 -113l-3 47l25 94l41 117l33 86l18 74l-4 -6l-55 -78l-60 -86l-67 -94l-60 -72l-186 -96l-176 106l-47 78l-21 164l21 112l12 31l-6 -6l27 96l-58 -80l25 95l37 84l32 92l52 84l61 75l29 31
l6 21l-14 22l45 109l53 65l55 78l64 78l84 86l49 33l-51 -66l-62 -82l-74 -90l-32 -70l63 86l62 80l69 78l74 74l6 -23l16 -32l-69 -86l20 12l-4 -25l-37 -86l60 70l2 -37l-53 -86l-33 -78l-31 -88l-27 -86l-47 -92l-61 -72l-2 -8v-8l-6 -12l-2 -23l-21 -31l-12 -71l-12 -64
l-31 -69l-31 -95l25 29l-8 -49l-7 -72l19 -33l10 7l57 59l74 96l53 66l68 78l76 88l39 34l26 17l54 41l-76 -78l-56 -68l-63 -82l-53 -67l-94 -121l-52 -59l-41 -41l-57 -33l61 25l64 57l59 76l64 82l61 79l68 84l53 54l78 94l8 12l10 29l13 71l10 35l59 107l47 43l45 80
l60 88l67 94l33 25l2 -13l-51 -84l-65 -100l-35 -68l10 -2l18 33l56 88l57 88l57 86l17 17l26 -29l-8 -41l-47 -96l31 41l-8 -41l-41 -99l43 56zM227 219l-24 6l12 -12zM672 516l14 43l-29 -43l-30 -53l-76 -117v-8l37 37l74 94zM688 565l8 27l-37 -49l-32 -49l16 12z" />
    <glyph glyph-name="V" unicode="V" horiz-adv-x="778" 
d="M834 84l28 43l-2 18l-4 -6l-18 -22zM737 948l-26 -71l-35 -72l-64 -88l-4 -21l-30 -82l-19 -65l-45 -80l25 4l-45 -70l-58 -96l-45 -74l-37 -22l-53 -86l-57 -88l-41 -62l-2 -4l-4 -16l-15 -21l-16 -38l4 28l-16 -24l-2 -23l-9 -57l-18 35l-8 4l-41 -52l33 56l-17 10v4
l-45 -80l-47 -65l18 61l-6 31v22l39 84l23 66v2l-37 -78l10 37l25 66l-2 36l-4 -6l-15 -26v-7l-10 -14l-35 -59l19 82l8 14l-4 41l10 100l-2 78l-17 82l-12 102l10 91l11 75l4 64l-2 20l6 80l-21 -2l4 76l5 104l22 58l14 90l23 98l31 94l30 78l13 31l2 -39l-19 -84l-26 -90
l-23 -109l-6 -75l14 49l19 90l20 92l27 86l18 86l9 88l18 -37l25 -59l8 -19l-11 -100l13 51l4 -43l-12 -90l14 8l29 97l10 -60l-15 -78l-10 -102l2 -82l8 -74l13 -84l-15 -92l-18 -90l-8 -37l4 -18v-92l20 36l41 60l39 72l-4 41l37 61l33 74l33 59l-11 10l54 99l43 63l49 55
l63 82l47 62l62 80l35 34l-35 -63l-45 -80l-68 -88l-37 -61l-20 -45l61 88l56 73l53 86l53 72l49 70l2 -37l12 -39l-40 -74l-19 -55l35 61l-33 -82l-14 -51l49 68l14 -13l-43 -90l-51 -88zM176 -10l4 28l-16 -30l-2 -17l-2 -10zM301 190l45 78l-53 -71l-51 -78l-17 -25
l-8 -35v-4l53 84z" />
    <glyph glyph-name="W" unicode="W" horiz-adv-x="1155" 
d="M973 385l-43 -102l-33 -80l-41 -49l-47 -105l-41 -78l-49 -98l8 -25l-14 15l-17 -19l-43 -61l37 80l6 16l-6 4l-6 4l-35 -71l-41 -97l2 41l-22 27l4 39l31 102l-5 21l-28 -82l20 88l2 6l-14 27l-33 -74l15 94l2 8l-9 15l-6 -31l-12 -33l-31 92l-35 93l-38 102l-17 111
l12 114l23 43l2 17l-8 4l2 6l-23 -25l23 -8l-70 -80l-61 -76l-51 -34l-64 -76l-2 -17l-6 -92l-18 -92l-15 -51l-4 29l4 86l4 96l-14 -14v-82l-14 -78l-4 -103l-11 21l-33 18l-14 25l-4 104l-6 -37l-8 25l-4 -6l-43 -45l-33 -31l35 60l8 14l-2 22l-29 -34l-51 -86h-6l-23 20
l-8 31l53 100l4 29l-38 -64l40 88l41 78v4l-63 -78l-27 -14l45 88l47 64v28l-8 97l-6 122l17 99l28 88l10 20l5 58l24 82l-8 14l35 104l33 54l30 96l47 98l47 94l41 62l37 41l-37 -82l-41 -92l-53 -113l-18 -76l10 6l35 95l41 92l45 92l43 88l10 12l29 -24v-39l-35 -105
l20 33v-24l-24 -99l20 15l43 94l-14 -94l-33 -97l-10 -59l-25 -135l-20 -94l-33 -86l-31 -68l-2 -33l39 41l8 12l3 39l71 88l66 50l86 73l22 17v2l15 51l6 -39l20 14l2 54l8 2l39 -23l11 -29l24 19l19 -49l-21 -33l2 -16l8 6l-8 -13l4 -38l21 16l-19 -37l2 -12l15 28l18 56
l6 -107l-4 -108l4 -88l-6 -105l-14 -88l-23 -82l-12 -18l6 -6l2 8l39 108l41 80l33 64l16 51l21 59l4 58l16 57l35 98l39 52l47 108l41 76l47 96l31 45l-17 -63l-32 -88l-56 -111l-22 -68l12 11l41 90l41 90l41 82l31 94l16 -25l19 -38l-7 -48l-10 -73l19 57l-21 -102
l12 -13l39 93l-8 -91l-35 -98l-18 -80l-21 -102l-16 -92l-47 -95l-21 -36l-18 -74l-33 -76v-37zM188 268l5 23l-17 -17l-4 -24zM229 317l37 54l-33 -37zM557 946l2 19l-76 -70l9 -6zM588 975l16 14v4v17l-16 -17v-18zM614 -33l2 6l-12 25zM655 211l2 8l-4 14zM684 973l2 -12
v2v14zM723 -51l2 6l-8 8l-12 -33l4 -18zM817 141l27 82l-27 -49l-45 -92l-41 -88l-4 -8v-29l43 88z" />
    <glyph glyph-name="X" unicode="X" horiz-adv-x="843" 
d="M27 422l49 94l41 84l49 94l80 92v2l-21 130l-2 108l21 53l-6 129l6 105l8 96l6 70l12 -70l6 -84l-4 -131l7 -104l12 -80l-4 110l2 115v102v109l4 117l20 -45l27 -35l14 -19l21 -121l-6 84l20 -71l19 -109l10 64l10 67l21 -96l6 -113l12 -41l45 62l61 47l78 90l82 76
l41 29l49 26l-73 -84l-82 -84l-66 -76l-31 -61l78 94l74 82l76 76l69 80l6 -19l9 -49l-21 -45l-31 -63l27 32l-59 -100h20l68 62l-53 -91l-58 -82l-55 -108l-43 -88l-62 -80l-75 -82l-13 -10l2 -10l-18 -101l8 -28l27 -15l18 -133l19 -96l-6 -84l-3 -115l17 -110l-6 -37
l-4 -31l-29 102l-12 117l-9 98l-10 9l2 -115l15 -102l20 -99l43 -100l-31 2l-55 27l-45 112v-30l-18 22l-47 111l16 -107l-25 -2l-37 123l-16 109l-39 90l-2 10l-2 -2l-53 -35l-78 -100l-64 -70l-83 -94l-29 -17l-25 -16l66 92l61 78l94 107l46 71l-35 -33l-72 -86l-68 -81
l-69 -87l-60 -90l-22 -32l-10 36l-19 33l64 115l4 29l-35 -52l47 95l27 55l-72 -76l-12 19l57 88z" />
    <glyph glyph-name="Y" unicode="Y" horiz-adv-x="860" 
d="M12 477l-12 125l8 33l15 106l8 -8l12 39l18 76l-8 31l31 86l39 102l45 51l53 99l47 88l31 49l37 43l-35 -90l-43 -93l-55 -98l-21 -69l49 92l50 92l41 92l34 90h9l30 -27l6 -30l-20 -105l25 78l-19 -102l2 -37l45 98l-8 -88l-43 -108l-23 -80l-22 -97l-29 -92l-37 -75
l-30 -86l-33 -35l-16 -4l18 -29l39 24l72 99l51 69l33 31l67 76l62 82l59 78l27 39l10 30l45 101l41 86l49 100l14 6l41 72l-37 -90l-30 -82l-39 -88l-13 -25l17 23l12 14l43 98l37 72l35 100l26 50l7 -33l2 -62l4 -20l-27 -82l6 6l13 18l2 5l-2 -5l2 5v-39v-39l10 -10
l-37 -66l-21 -35v-16l39 76l35 67l-20 -100l-31 -88l-8 -27l-2 -2l-23 -68l-12 -69l-16 -109l-15 -100l-18 -90l-31 -94l-29 -88l-26 -91l-25 -4l-12 -34l-2 -7h22l-36 -96l-25 -90l-35 -53l-29 -99l-38 -98l-41 -104l-35 -74l-25 -47l21 78l24 88l39 106l33 92l20 89
l-30 -80l-35 -97l-33 -94l-37 -96l-30 -94l-17 -39l-14 24l-27 29l23 88l10 86l-25 -102l11 82l20 114l-24 -47l-37 -94l10 100l27 101l20 92l12 106l15 99l22 71l-74 -45l-172 -8zM651 1077l-12 -41l2 4l23 33l22 55zM475 840l-29 -49l74 90l27 32l8 33l-43 -53zM211 592
l-4 -17l16 -2l25 25z" />
    <glyph glyph-name="Z" unicode="Z" horiz-adv-x="1085" 
d="M1190 1477l14 -23l8 -18l-47 -60l-82 -104l19 10l59 72l-53 -80l-72 -94v-15l45 39l80 86l-45 -82l-49 -61l-70 -94l-67 -88l-60 -86l-43 -64l-65 -86l-57 -67l-74 -76l-74 -58l-61 -69l-27 16l-80 -94l-8 14l-35 -28l-43 -41l68 26l92 45l18 25l99 31l61 -2l111 32
l94 19l74 6l38 -10l-104 -25l-115 -27l-2 -2l15 -6l61 13l78 22l100 16l6 -8l-16 -45l-49 -24l-14 -15l-3 -12l-53 -31l12 -8l50 12l-27 -34l-39 -15l-33 -43l-67 -24l-80 -41l-84 -27v-16l-107 -33l-77 -16l-70 -11l-104 -30l-89 -23l-106 -20l-41 -5l68 33l92 27l119 35
l40 16l-2 10l-32 -10l-95 -29l-100 -28l-98 -29l-60 -12l-32 -25l18 21h-6l29 26l4 6l16 35l31 15l24 24l-4 -2l6 2l7 8l73 56l-22 -4l4 6l-25 -21l-75 -59l-62 -68l-63 -82l10 31l-15 35l5 29l63 100l-29 -29l2 15l70 88l-8 8l-86 -76l27 61l73 68l64 66l57 84l49 69l68 78
l104 76l78 47l55 8l47 55l23 43l6 19l68 76l63 73l51 43l62 56l59 67l-26 -4l-72 -4l-2 -18l-103 -23l-94 -25l-61 5l-105 -25l-71 -16l-86 -31l-56 -14l37 26l74 39l90 27l98 22l76 27l-88 -17l-102 -22l-80 -27l-82 -32l-82 -41l4 18l4 39l17 20l88 60l-47 -25l28 31
l94 53h-36l-93 -37l78 60l109 41l76 30l102 45l111 37l108 15l107 -4l102 -21l47 -14l4 -17l58 58l16 6l70 67l-37 -53l-64 -74l-35 -36h2l-16 -33l45 49l59 55l74 88l66 72zM178 276l37 48l-78 -76l-22 -19l39 17zM297 309l4 15l-20 -23zM823 1094l70 75h-19l-59 -63
l-41 -53l-31 -43z" />
    <glyph glyph-name="bracketleft" unicode="[" horiz-adv-x="1308" 
d="M1210 1374l-55 -12l-96 -19l84 -6l4 -18l-80 -10l-135 -2l-103 -9l-114 9l-72 22l-63 14l-45 3l-7 -54l-2 -12l19 35l12 -76l14 10l-10 -73l-39 -154l-6 -53l23 80l24 86l-24 -111l-13 -74l-28 -131l14 23l20 53l39 135l7 -18l-11 -90l-26 -101l-33 -106l-33 -99l-12 -63
l-31 -133l-14 -82l-19 -92l-28 -96l-29 -84l-29 -103l-24 -86l-2 -4l78 -10l75 -4l72 -21l98 -10l117 -12l31 -19l22 -16l-92 10l-121 10h-84l-10 -8l100 -6l103 -6l86 -14l115 -19l-13 -20l-53 -27l-100 6l20 -8l-18 -10l-99 -15l84 -10v-20l-98 -9l-104 -6l-99 -16h-100
l-98 12l-19 6l-24 -28l-37 6l-19 49l-4 4l-45 -43l-28 -20l4 90l-2 12l-11 4l9 31l-3 35l11 18l-31 35l57 35l4 39l9 79l18 48l31 122l-23 -26l17 65l28 86l35 117l2 14l4 25l17 96l6 74l4 131v76l4 100l23 123l10 74l24 117l27 90l33 82l16 69l21 -14l2 16l-17 4l17 15
l6 73l43 88l18 -55l21 -35l43 19l41 6v-12l82 4l79 2l48 -8l92 -25l55 -22l100 -13l90 -4l121 -16l45 -19l-24 -4l-107 6l-116 4l-74 7l-45 -4l104 -15l96 -2l105 -8l106 -18l11 -9l-19 -32l-35 -11h-104z" />
    <glyph glyph-name="backslash" unicode="\" horiz-adv-x="0" 
 />
    <glyph glyph-name="bracketright" unicode="]" horiz-adv-x="1292" 
d="M1169 -371l15 66l14 53l-12 -57l-17 -60v-2zM1292 1282l-12 -127l-20 -84l12 8l12 66l6 -45l-4 -90l-20 -105l-21 -96l-18 -109v-57l-33 -156l-10 -61l-29 -117l-20 -82l-37 -92l-43 -100l-23 -58l-28 -102h-9l-8 -45l62 -43l-66 -47l-74 -14l-98 -11l-84 -4l8 -22h-88
l-96 -11l-57 13l-111 -8l-104 -5l-109 11l-49 8l-58 10l74 6h103h125l81 8l72 15l-108 -6l-109 -4h-92l-98 4l-111 -15l25 11l2 34l39 21l122 16l-24 8l-23 2l95 17l28 12l-80 6l11 21l71 6l113 16l88 21l88 20l111 23l98 -2l33 -6l10 24l18 84l21 66l26 82l29 100l-33 -53
l25 78l22 77l-12 56l17 125l24 108l19 94l18 113l12 74l11 80l26 120l29 66l2 25l-53 6l-45 -4l-2 -9l-136 -2l-55 23l-84 4h-92l-121 -8l-51 14l-55 29l102 -17l100 13l121 4l74 4l-57 6l-82 2l-93 -8l-112 2l-105 8l15 12l39 33l20 10l100 7h-75l67 12l105 35l-103 -13
l-6 17l88 26l111 17l125 12l65 8l99 6l129 -26l2 28l28 7l39 2l47 14l23 39l29 -82l18 -78l-2 -63zM954 535l2 24l-10 -4l-14 -100l20 69zM1270 1069l-15 -55l-14 -64h2l17 60z" />
    <glyph glyph-name="asciicircum" unicode="^" horiz-adv-x="958" 
d="M872 936l35 -82l51 -96l-24 16l-43 10l-23 15l-61 88l45 -78l-51 63l-60 80l39 -92l-16 -8l-51 80l-54 94l-61 90l-49 70l-33 67l-37 -53l-55 -76l-47 -28l-80 -90l-61 -66l-74 -82l-49 -51l-43 -47l41 67l49 74l59 70l90 92l43 61l4 17l-75 -84l-68 -74l-61 -76l-56 -65
l-69 -90l-15 -13l-10 21l-2 43l31 51l51 88l-37 -49l14 35l52 90l-2 18l-66 -78l-10 9l47 80l67 90l46 65l61 105l41 75l55 80l58 72l57 70l61 45l43 55l47 -4l17 -55l20 -33l6 -4l31 -43l-8 -19l10 -55l25 -72l22 -59h9l47 -100l16 -66l33 -80l41 -98l39 -101l8 -38l12 -62
l-43 88l-41 84l-49 119l-37 65l14 -51l41 -94z" />
    <glyph glyph-name="underscore" unicode="_" horiz-adv-x="1409" 
d="M1409 -63l-20 -48l-39 -49l47 -47h-4l-47 -20l-72 -27l-94 -6l-64 -10l-90 -2l-61 -15l-2 -8l-103 4l-86 -4l-80 -6l-67 8l-119 6h-96l-72 -2l-129 -16l-49 2l-70 4l29 12l100 6l109 21l88 6l129 -4l65 2l95 10l-119 -2l-103 10l-90 -4l-90 -12l-108 -14l-103 -4l-94 -2
l37 6l-14 18l69 27l8 8l125 18l56 25l-105 -25l33 13l78 24l106 27l-49 4l-123 -21l8 13l90 31l105 16l127 4l65 6l107 25l90 16l117 4l71 -4l101 -2l82 -4l108 -12l25 -2z" />
    <glyph glyph-name="grave" unicode="`" horiz-adv-x="405" 
d="M358 1477l45 16l-36 -61l-54 -103l-45 -80l-63 -67l-62 -23l-63 -20l-80 51v72l33 73l18 60l66 73l55 39l80 82l70 39l4 -12l-78 -72l-55 -69l26 14l70 78l84 63l24 -4l9 -41l-46 -67l19 8z" />
    <glyph glyph-name="a" unicode="a" horiz-adv-x="1034" 
d="M514 520h-78l-51 -6l2 -27l-53 -77l-51 -50l-52 -90l-61 -92l-39 -33l8 27l47 88l58 92l24 66l-57 -88l-47 -92l-55 -78l-43 -78l-19 51l2 43l31 90l-21 -37l23 86l-35 -39l-16 17l32 90l33 90l4 8l-80 4l-106 -2l-27 19l111 16l100 -4l17 14l-88 4l-99 -8l-92 -22l25 55
l63 35l-28 -4l94 45l-60 8l41 33l103 14l84 33l94 24h20l2 37l33 66l10 55l70 96l-18 11l61 75l45 54l55 59l60 82l78 82l77 72l72 59l43 27l-37 -43l-61 -68l-72 -74l-84 -90l-45 -71l37 38l72 82l63 70l72 74l76 67l75 66l-20 -47l-25 -60l-8 -22l-45 -56v-4l19 19
l-15 -33l4 -22l-4 -17l29 29l-19 -55l-4 -3l-6 -73l-4 -101l27 97l16 6l-6 -90l-8 -103l4 -88l-6 -108l-2 -54h57l53 2l-65 -26l-47 -4v-2l-2 -13l59 5l96 20l-6 -23l-18 -36l-82 -31l6 -8l-14 -13l-80 -22l-2 -4l80 -2l-25 -27l-74 -10l-12 -25l-31 -45l-8 -18l-2 -15
l-12 -67l14 -25l-25 -98l-32 -72l-23 -84l-43 -90l-37 -82l-22 -37l6 56l31 90l45 117l2 51l-29 -96l-41 -95l-31 -77l-10 -105l-22 2l-33 43l12 115l-16 -43l-4 49l12 82l-43 -103l-4 74l28 94l5 93v90l28 114l19 39zM856 1284l-6 -67l18 81zM719 1083l-10 -61l4 -84
l16 121l14 78zM559 827l-37 -41l56 2l45 -4l-7 2l19 107l16 53l-30 -47z" />
    <glyph glyph-name="b" unicode="b" horiz-adv-x="976" 
d="M203 -59l-88 -13l-119 -20l-49 2l45 16l-10 19l-86 -23l4 23l2 39l65 20l19 57l32 91l-36 -80l14 55l39 117l-25 -27l-47 -94l2 55l43 105l23 75l22 101l13 90l22 80l14 100l35 98l43 93l6 2l27 67l25 62l-9 28l13 39l-90 -24h-48l-12 8l111 37l49 14l4 14l-96 -32
l-101 -27l-51 -21l17 35l14 39l115 49l-37 -6l18 17l90 49l-30 4l-86 -23l84 49l108 41l66 35l39 66l34 47l-10 -47l-16 -35l20 10l2 2l31 66l18 31l29 -35v-23l16 6l132 33l59 2l29 14l75 9l148 -70l69 -113l-4 -122l27 28l-33 -127l-98 -139l-64 -66l-51 -22l-114 -82
l-76 -37l92 -39l102 -119l47 -165l-49 -132l-104 -106l-92 -39l-74 -14l-53 -58v-28l-119 -70l-70 -18zM834 965l-105 -86l-88 -45l-72 -46l17 -4l30 19l113 57l64 55zM371 807l-2 -14l18 4l64 30l84 68l-35 -12l-66 -33l4 14l41 41l111 74l69 47l48 66l43 61l34 45l17 62
l4 32l-19 -8l-22 -2l-57 -16l-62 -33l-33 -19l-82 -32l-26 -2l-4 -52l-15 -90l-36 -110l-48 -74l-24 -27zM463 811l-23 2l-41 -14l50 8zM365 778v-6l14 6h-14zM414 688l-80 -29l10 -10v-10l70 16l73 -8l115 -49l19 -14l20 -13l-53 50l-92 36l-50 35l-22 -6zM240 330
l-50 -129l-28 -43l16 10l80 61l74 50l71 45l70 36l27 33l22 -22l41 24l17 11l26 49l-10 -4l20 32l-28 47l4 33l-41 23l-82 30l-82 7l-43 -5v-30l-37 -115l-28 -53zM98 129l-4 -8l17 6l18 39l64 131l14 51l24 82l-43 -106l-43 -105zM70 82l-9 -14l27 16l2 2zM-6 -74l18 8
l103 27l121 29l61 41l-109 -43l-92 -21l-90 -16z" />
    <glyph glyph-name="c" unicode="c" horiz-adv-x="835" 
d="M821 82v45l-10 -51zM162 1001l-2 48l26 65l58 84l12 33l78 74l84 55l98 45l94 41l-16 37l119 18l94 -104l37 -80l33 -43l12 -98l14 -103l-20 -78l-25 -127l-35 -96l-26 -45l-27 -31l33 109l35 104l10 107l-8 35l-13 -125l-28 -97l-33 -94l-39 -102l-12 24l-23 37l21 90
l-8 4l-7 9l9 110l-27 -61l-23 -27l13 105l4 82l-19 65l-20 70l-14 96l-3 8l-20 -16l-59 -47l-39 -74l-15 -14l-28 -47l-35 -60l4 -20l-55 -105l-27 -26l6 -45l-35 -62l-26 -70l8 -26l-33 -90l-37 -51l-32 -101l-13 -65l4 -11l-8 -26l15 -64l14 -39l18 11l21 -41l12 4l49 -13
l76 29l43 37l76 94l22 12l37 27l-61 -86l-64 -84l-84 -49l-57 -18l33 -3l78 29l59 58l65 88l56 69l18 33l14 -31l17 -33l-49 -75l-15 -49l37 63l-37 -82l-47 -88l78 96l14 -8l-57 -100l-110 -94l-111 -52l-129 -24l-184 117l-52 106l-10 121l33 98l8 109l16 121l15 98l39 88
l4 6h-4l43 94l30 90zM512 1368l-100 -61l8 -4l102 55l90 47l9 2l4 6l-2 8l-19 -8zM190 498l-20 -35l-23 -76l15 2l2 -6l8 43z" />
    <glyph glyph-name="d" unicode="d" horiz-adv-x="1079" 
d="M315 -23l-104 -30l-98 -23l-97 -16l-59 -2l45 18l10 4l-4 13l-4 4l-82 -19h-20l8 41l33 25l53 31l2 4l-43 -17l43 23l8 33v4l-12 -2l-4 -25l2 25l-25 -7l25 13l6 59l20 98l-45 -104l-18 -8l22 102l35 101l21 84l22 102l31 102l37 84l51 84v2v2l29 88l26 68l4 47l23 64
l37 90l39 55l4 8h-12l-72 -2l-23 17l88 22l31 -2l4 10h-14l-86 -8l-92 -27l30 56l39 32l-8 5l74 43l-23 14v27l101 12l65 33l21 39l30 43l-20 -72l16 2l19 39l41 92l6 -39l18 -41l-12 -43l18 4l95 -12l39 -21v2l100 11l76 -33l106 -82l39 -96l17 2l22 -123l2 -133l-22 -70
l-41 -112l-25 -46l14 21l-28 -94l-62 -84l-49 -72l-72 -96l-57 -72l-67 -74l-37 -28l-4 -23l-62 -39l-47 -65l8 -27l-121 -80zM997 897l-2 -6v-4zM950 782l2 -22l15 22l-4 -10l2 6l24 70l2 16zM760 668l10 20l-35 -37l-51 -63l57 51zM385 1249l-6 -14h16l6 14h-16zM371 1204
l-13 -45l23 45h-10zM233 324l-45 -107l-36 -72l10 2l63 48l68 57l45 27l29 26l2 17l55 51l53 57l37 55l10 23l88 92l54 29l59 59l2 2l23 43l32 60l35 94l6 78l-8 63l-6 57v2l-21 11l-16 71l-6 62l-18 16l-78 -10l-19 -16l-39 -29l-63 2l-4 -10l-19 -109l-18 -96l-37 -88
l-45 -84l-20 -27v-4l-29 -61l-17 -62l-30 -88l20 -6l-43 -102l-35 -88zM106 152l-8 -29l15 6l14 37l57 119l21 67l-15 -20l-43 -92zM86 -45l113 22l84 37l-64 -16l-102 -29l-80 -16l-6 -19z" />
    <glyph glyph-name="e" unicode="e" horiz-adv-x="890" 
d="M41 645l68 27l2 10l-21 20l47 35l41 13l35 51l18 8l2 4l-10 33l37 65l25 66l-6 29l34 75l6 19h-4l-79 10l-76 12l82 17l90 -9l6 21l-47 4l-88 -6l-78 4l35 49l51 21l-14 6l73 39l-80 4l119 33l66 18l47 57l45 4l27 48l36 49l37 26l-47 -88l-14 -26l14 2l33 63l41 78l6 -8
l27 -39v-33l-9 -24h11l65 6l80 -13h105l108 -8l64 -14l-43 -6l-93 -6l-112 4l-70 -15l103 -2l100 2l111 -6l83 -4l-32 -39l-35 -16l-107 -21l52 2l-101 -24l58 -10l-7 -25l-86 -10l-96 -21l-98 -30h-10l-25 -21l-53 -18l-4 -2l-6 -33l-17 -82l-39 -102l-26 -46l32 2l62 -14
h113h94l71 -10l-90 -16l-88 -7l-112 -6l2 -10l112 4l90 6l103 2l2 -20l-8 -37l-97 -18l52 6l-76 -35l-19 -23l64 -2l-100 -28l-82 -19l-105 -26l-41 -7l-24 -24l-66 -21l-4 -37v-24l-57 -123l-11 -27l56 7l92 12l94 6l111 16l49 -2l-37 -16l-88 -25l-121 -12l-76 -22l60 6
l102 12l105 22l92 15l20 -4l-14 -39l-27 -23l-80 -37l58 17l-95 -45l7 -15l75 11l-90 -43l-104 -25l-80 -37l-21 -20l-53 -25l-82 -35l-28 -10l-93 -37l-18 -2l-12 -20l-41 -78l-27 -35l2 29l39 92l4 10l-12 -2l-25 -51l-43 -92l-30 -78l-4 53l-5 55l-4 19l31 86l-14 -2
l-11 -23l7 23l-33 -4l-78 -4l-29 10l93 24l16 3l2 12l-31 -6l-92 -21l-41 -4l21 49l59 37l-16 2l34 29l39 26h-67l86 35l51 21l16 22l25 68l22 92l21 74l39 94l-62 12l72 13l2 6l2 4l-22 -2h-101zM104 53l11 4l-9 2z" />
    <glyph glyph-name="f" unicode="f" horiz-adv-x="892" 
d="M416 1139l-99 -13l-94 -16l6 35l37 37v8l74 45l-47 8l33 33l108 29l80 36l55 13l9 14l45 98l22 27l12 8l-34 -96l-17 -43l12 2l11 27l37 79l30 101v-25l37 -6l2 -39l-28 -110l2 -7l8 2l18 58l-12 -58l14 5l78 -9l117 7l92 -9l51 -14l-37 -10l-90 -2l-121 -8l27 -5l117 -2
h94l96 2l-49 -45l-43 -18l-8 -12l-33 -21l-43 -24l62 -11l-113 -20l-88 -27l-103 -35l-69 -10l-10 -26l-25 -95l-16 -84l-31 -90l-33 -73l55 24l93 23l94 20l39 -8l-105 -33l-112 -35l-80 -39l10 -4l111 45l94 31l98 25l25 2l-9 -45l-32 -27l-54 -35l17 2l-88 -53l76 16
l6 -24l-84 -37l-80 -51l-84 -64l-76 -43l-14 -4v-2l-37 -112l-25 -80l-39 -60l-45 -102l-43 -78l-45 -100l-16 -25l-39 -65l29 84l28 86l49 98l43 90l25 90l-27 -59l-41 -90l-43 -86l-38 -101l-35 -86l-27 -94l-2 41l-25 25l-4 34l27 113l-6 12l-23 -75l15 90l30 116
l-28 -45l-45 -114l10 98l39 102l33 88l16 97l6 51l-106 -17l-27 17l100 26l39 9l4 10l-90 -23l-90 -22l-14 31l55 53l-29 2l95 57l-84 -10l88 53l90 51l59 43l6 2l17 33l14 35l14 66l31 73l-14 8l28 82l37 101l23 35h-70l-67 2l32 20l107 10l20 4l5 11h-33zM494 1139v-2l2 2
h-2z" />
    <glyph glyph-name="g" unicode="g" 
d="M313 1139l-4 51l17 63l57 97l115 55l53 -27l16 21l-47 24l90 43l90 58l105 -25l12 -35h8l43 15l170 -47l37 -48l49 -38l39 -58l8 -41l-34 41l26 -49l2 -8l15 -21l-9 -8h-2l15 -82l-4 -76l-21 91l-16 63l-15 -2l19 -66l6 -106l-20 -2l-37 6l-23 96l6 -47l-35 64l-24 14
v-51l-39 74l-35 28l-39 11l-24 2l-58 -37l-84 -31l-47 -27l-37 -6v-8l13 -45l-68 -70l-74 -65l-69 -47l33 57l67 76l-49 -43l-12 -17l-39 -36l-23 -62l-16 -82l-17 -80l5 -16l-23 -82l-25 -66l-20 -88l-18 -98l-9 -92l-4 -29l68 8l67 9l41 24l58 58l6 30l61 66l60 33l69 63
l29 31l-80 49l-70 47l11 16l88 -43h33l-86 48l-97 32l41 43l64 13l22 8l-39 31l105 -7h86l86 -24l39 -43l12 -41l45 35l27 -90l-19 -72l-18 -88l-39 -84l14 -12l-53 -97l-39 -88l-43 -47l-59 -110l-39 -54l-35 -88l-23 -43l5 39l20 90l43 74l53 96l29 78l-47 -86l-55 -96
l-35 -70l-31 -86l-25 -104l-6 30l-26 33l-6 25l12 102l-12 -51l-5 47l27 109l-27 -29l-36 -98l10 106l20 41l-6 -4l-55 -16l-70 -27l-16 -10l-6 -6l-25 -15l-10 -6l-8 -2l-33 -18l-12 2l-35 -15l78 11l135 67l-76 -72l-121 -38l-160 -13l-129 80l-67 180l-2 95l12 102l33 96
l41 103l51 94l6 4l21 74l16 49l-57 -88l-19 -15l31 95l55 98l37 76l64 116zM213 92l2 10l-6 4l-27 66l19 -72zM756 475l-51 -37l24 11l27 24v2zM424 209l-51 -19l63 17l-2 10zM309 457l8 80l-18 -52l-20 -104l-5 -100v-82l17 14l-4 37v82z" />
    <glyph glyph-name="h" unicode="h" horiz-adv-x="1060" 
d="M-45 711l37 18l86 25l-29 -2l84 18l2 6l-74 8l25 27l59 2l11 39l43 92l37 64l10 12l4 29l6 55l35 76l43 55l49 100l55 92l33 41l-14 -63l-56 -100l-32 -80l32 49l48 88l45 90l22 43l31 -47l-17 -82l29 51l-20 -108l30 32l19 -24l-37 -92l-14 -101l-19 -90l-53 -86
l-21 -20l-10 -49l-16 -37l65 -4l15 -2l2 6l121 4l59 -10l8 22l8 16l-8 25l51 68l9 65l-19 21l49 112l35 60l35 84l53 96l62 96l34 35l-16 -41l-41 -92l-59 -105l-21 -79l29 63l45 92l49 94l53 82l13 11l24 -37l-2 -37l-27 -92l23 55l-29 -107h17l45 74l-31 -104l-25 -76
l-16 -111l-24 -96l-31 -72l-41 -90l-12 -49l-7 -14l78 -12l49 -13l-55 -8l-82 4l-4 -12l80 -6l96 -6l-2 -13l-33 -37l-47 -12l-41 -10l9 -6l-93 -17v-2l58 -10l16 -20l-76 -7l-2 -16l-39 -100l-32 -88l-31 -47l-41 -91l-43 -100l-33 -80l-39 -94l-39 -98l-12 -8l-45 -78
l39 88l22 88l31 86l51 125l31 69l27 86l-17 -28l-39 -90l-39 -90l-34 -93l-33 -100l-37 -88l-39 -94l-14 -23l-13 19v65l-2 19l29 96l14 82l-22 -82l-2 10l12 78l25 117l-23 -43l-37 -105l-10 10l16 89l29 100l39 106l14 70l29 109l23 88l-31 -4l-86 4l-68 4h-57l-14 -29
l-41 -84l-54 -90l-30 -68l-37 -108l-21 -27l-16 -10l33 106l24 86l60 107l24 59l6 35l-47 -96l-45 -78l-28 -94l-33 -90l-33 -103v21l-33 10l-6 33l25 113l-4 34l-19 -90l8 94l19 113l-29 -65l-29 -91l5 103l38 112l39 95l6 39l-57 6l-45 12l33 10l78 4l2 11l-19 2h-98
l-76 6z" />
    <glyph glyph-name="i" unicode="i" horiz-adv-x="604" 
d="M-37 57l-8 41l27 84l30 80l29 115l8 61l12 88l25 101l29 71l28 72l37 88l21 35v4l6 4l18 29l21 12l8 45l-18 17l36 96l43 76l45 59l39 70l58 98l24 29l2 -19l-34 -80l-52 -98l-26 -59l24 26l39 70l45 98l35 78l16 45l31 -27l10 -34l-20 -91l27 62l-21 -88l4 -39l43 84
l-8 -74l-33 -98l-31 -92l-12 -62l-26 -88l-45 -88l-39 -31l-4 -12l-13 -43l-20 -63l-11 -76l5 -10l-37 -76l-23 -60l-28 -73l-27 -49l-29 -95l-41 -108l-35 -64l-36 -82l-11 -20l-22 -84l2 41l12 86l29 76l47 92l37 110l12 58l12 57l-30 -88l-33 -100l-37 -86l-35 -80
l-26 -66l-17 -98l-22 -82l6 55l-21 -2l-14 43v25l14 121l-4 22l-16 -104l2 71l18 82l23 78l-33 -55z" />
    <glyph glyph-name="j" unicode="j" horiz-adv-x="675" 
d="M309 672l39 73l10 41l-6 35l31 76l20 57l11 64l10 47l29 65l-45 7l-109 -13l-57 9l84 24l106 17l8 14l-88 -14l-102 -19l-41 2l10 49l66 41l-11 6l25 29l-20 23l98 34l86 41l86 25l65 10l41 72l31 37l-10 -39l-29 -66h17l26 49l35 88l4 -8l33 -26l2 -35l-29 -103l33 80
l-20 -84l-13 -57l2 -6l43 72l8 -33l-32 -84l-35 -113l-25 -90l-22 -80l-37 -90l-27 -43l-8 -37l-8 -76l-23 -90l19 11l-27 -78l-41 -111l-28 -86l-39 -47l-35 -84l-41 -102l-41 -84l-25 -52l-2 -32l-20 -56l-62 -53l-4 -10v4l-10 -8l-16 12l-27 -74l4 21l-20 2l-6 65l-5 17
l2 4l-10 8l-37 53l-28 2l-70 95l-25 73l-38 76l-33 68l12 6l55 -72l47 -76l-6 31l-49 80l-57 82l-4 27l45 14l71 -55l-8 20l51 -31l-22 58l74 -66l78 -84l22 82l23 88l32 111l19 86zM369 264l-35 -94l-35 -80l8 -12l2 8l47 113l39 96l21 57h-6z" />
    <glyph glyph-name="k" unicode="k" horiz-adv-x="958" 
d="M98 541l21 108l31 80l36 98l45 88l13 7l14 71l-18 17l39 110l34 60l39 84l64 102l43 66l30 41l-6 -33l-24 -72l-68 -102l-24 -78l24 43l55 98l43 74l37 92l15 33l34 -27l-2 -49l-12 -88l19 59l-19 -100l8 -16l43 86l-16 -101l-45 -90l-21 -115l-18 -86l-10 -30l28 24
l58 31l59 49l98 86l58 45l98 78l19 4l67 43l-67 -57l-66 -66l-72 -59l-104 -90l-31 -35l-31 -33l84 70l78 69l72 60l80 67l74 66l75 70l-39 -66l-2 -33l-10 -26l-74 -80l-24 -41l78 82l-50 -64l-81 -92l24 8l76 62l-2 -21l-57 -67l-76 -76l-66 -78l-67 -74l-45 -59l-68 -72
l-86 -71l-39 -31l29 8l98 -43l59 -49l101 -68l82 -84l22 -45l-6 -8l-76 72l-96 82l-78 35l78 -54l82 -65l68 -74l67 -86l-29 -2l-49 14l-65 52l35 -41l-80 51l-17 -10l31 -46l-68 37l-75 41l-92 21l-89 22l-84 47l-6 5l-6 -13l-33 -110l-43 -90l-30 -97l-45 -102l-23 -62
l-22 -55l4 47l20 88l33 92l45 121l29 70l20 102l-24 -80l-45 -100l-29 -90l-35 -100l-27 -68l-28 -119l-13 -33l-18 9l-4 84l-6 14l24 135l-12 -8l-16 -82l8 92l29 123l-21 -31l-37 -98l-8 29l20 86l29 116l27 84l12 113z" />
    <glyph glyph-name="l" unicode="l" horiz-adv-x="667" 
d="M84 524l43 74l45 90l43 60l21 57l-9 22l29 76l49 105l39 61l39 61l51 101l41 76l60 102l16 10l49 51l-47 -79l-45 -93l-59 -104l-35 -76l-29 -78l43 78l47 92l45 88l47 91l49 84l52 92l-4 -56l-15 -79l2 -19l-39 -96l25 41v-13l-27 -92l-4 -34l47 81h15l-25 -81l-41 -101
l-18 -63l-41 -123l-33 -96l-31 -68l-4 -10l-2 -21l-12 -14l-21 -47l-39 -74l-28 -35l-25 -57l-12 -35h-2l-6 -10l37 35l-43 -86l-48 -95l-20 -67l-21 -41l-20 -78v-78l2 -28l21 -11l124 19l54 18h18l57 12l-102 -45l-70 -22l-86 -12l-47 36l-4 68l-2 59l6 70l-16 -100v-86
l27 -47l71 -9l101 21l73 29l90 55l54 49l-43 -61l14 -19l-14 -31l-45 -34l-142 -66l-37 -20l115 41l-29 -23l-69 -25l-166 -14l35 -18l129 10l112 27l-116 -54l-133 -14l-166 127l-25 147l-4 84l12 119l25 115z" />
    <glyph glyph-name="m" unicode="m" horiz-adv-x="1263" 
d="M0 -39v92l27 105l26 121l21 98l6 53l12 100l35 107l16 74l11 22l2 25l24 98l-22 2l30 96l29 101l37 47l33 106l35 95l45 88l16 20l31 53l-23 -78l-39 -92l-6 -18l14 6l39 94l25 74l31 106l6 -55l14 -57l4 -23l-14 -96l18 68l-2 -58l-12 -53l14 -10l39 96l-14 -106l-4 -21
l8 -49l16 -80l21 -29l16 -63l25 -109l-6 -59l24 -94l2 -8l45 61l35 66l58 102l49 82l53 76l68 77l69 62l57 72l29 4l49 71l17 -18l4 18l33 31l-17 -74l10 -12l13 62l20 83l25 -43l14 -49l2 -78h2l4 54l4 -119l15 -6l26 90l-4 -119l-24 -108v-84l-13 -103l-24 -92l-39 -86
l-6 -8l-6 -19l-17 -61l-12 -88l4 -10l-23 -99l-20 -90l-35 -57l-37 -107l-32 -81l-31 -93l-29 -94l-18 -31l-15 -12l25 98l23 99l38 106l23 66l29 108l-39 -104l-37 -90l-27 -84l-24 -103l-27 -92l-23 -94l3 45l-35 6l-6 29l16 102v72l-14 -111v78l14 115l-16 -21l-25 -92
l-14 25l12 90l27 106l20 84l16 111l9 92l20 103l37 100l39 80l22 41v16l-45 -61l-49 -41l-49 -62l-78 -98l-53 -57l-80 -88l-6 -7l8 -30l-24 16l-27 -27l-43 -47l29 54l22 30l-12 9l-33 -35l-57 -86v8l-17 12l-2 49l19 37l49 74l-4 10l-6 -8l2 -8l-4 6l-11 -10l9 14l-21 29
l-4 -4l2 6l-6 8l-41 82l14 -78h-22l-27 70l-33 82l-20 -50l-10 -38l2 -25l-23 -100l14 -9l-16 -75l-24 -109l-35 -57l-37 -88l-35 -99l-35 -98l-33 -88l-18 -25l-16 -20l24 98l25 76l47 141l16 62l13 51l-41 -104l-31 -97l-35 -108l-25 -74l-20 -102l-4 6l-27 6l-22 26
l18 105l-2 57l-16 -98l4 84l20 115l-24 -43zM1245 1362l-2 -6v-8zM651 561v-18l54 65l92 107l39 55l38 66l-51 -66l-71 -90l-60 -68zM643 535l-4 10l-12 -15l4 -12zM629 709l-8 -7l2 -4zM596 682l-4 -4l-8 -10l6 -23l10 19zM563 809l-26 80l12 -82l24 -90l5 -15l10 15z
M528 598h-2l13 -39l4 8zM293 1106l-2 -25l4 6l-2 21v-2z" />
    <glyph glyph-name="n" unicode="n" horiz-adv-x="1075" 
d="M-4 330l20 90l25 104l31 101l39 80l39 75l-17 19l41 80l19 82l-13 24l39 94l19 33l-9 74v80l-4 41l2 22l35 -80l2 -86l12 29l-2 37l-18 84l-43 96l23 4l40 -12l58 -92l-23 53l39 -49l4 6l15 20l-7 23l9 -16l43 65l30 35l-20 -64l-37 -67l8 -15v3l54 88l43 102l14 -18
l20 -41l-34 -107l20 31l-2 -39l-33 -98l62 100l-7 -72l-45 -86l-16 -71l-2 -15l6 -14l29 -68l31 -88l20 -104l-4 -62v-2v-14l18 -66l21 -81l22 6l21 -101l6 -20l25 74l10 20l28 64l23 73l35 84l-21 8l47 101l35 94l45 53l41 88l43 78l51 98l23 23l20 20l-36 -92l-39 -82
l-60 -118l-24 -66l26 41l39 78l43 88l41 90l39 92l17 39l14 -29l22 -30l-30 -105l-2 -43l24 72l-22 -96l-17 -68l47 84l15 -10l-27 -84l-35 -96l-26 -95l-17 -75l-32 -117l-50 -90l-4 -8l-12 -54l-33 -90l21 -8l-47 -100l-35 -93l-39 -40l-45 -107l-29 -53l17 -53l-5 -29
v-53l-24 94l-4 8l-8 -14l2 -2l22 -97l27 -90l-29 23l-47 49l-20 35l-3 6l-20 -19l-27 -24l29 57l-8 15v-2l-47 -97l-17 -39l-14 27l-25 29l43 108l-10 12l-12 -30l10 37l-18 26l-6 17l-7 2l2 6l-32 80l-33 78l-49 94l-43 108l-21 99l-14 92l-18 -41l14 -13l-43 -92l-35 -88
l-37 -35l-41 -108l-39 -76l-47 -98l-22 -25l-2 13l30 92l41 92l43 104l23 70l-37 -68l-39 -96l-39 -92l-37 -82l-26 -96l-2 28l-31 23l-8 29l26 102l-20 -43v33l22 102l-18 -16l-43 -107l10 97zM717 150l-4 -11l2 -2l4 -16l39 78l20 69l-18 -26zM694 98l-8 -14l6 -16l6 14
l2 2zM639 -8l-2 -6l6 -15l4 6zM578 33v22l-5 -12zM565 100l-2 -6l6 -35v-2l4 17l2 8zM373 1290l-2 -6l6 -10l4 8l-4 14z" />
    <glyph glyph-name="o" unicode="o" horiz-adv-x="862" 
d="M117 737h26l-14 51l33 68l18 76l-14 26l43 99l45 96l61 66l68 79l90 78l51 21h27l-57 -43l38 10l17 10l94 51l-8 -30l-6 -21l80 -24l63 -78l39 -109l-2 56l-64 141l3 12l77 -110l27 -109l10 -123l-2 -104l-14 -142l-10 -71l-45 -123l-39 -84l-54 -94l-65 -86l-55 -72
l-31 -10l-21 -33l-6 -21l-45 -96l-82 -92l76 55l82 127v-28l-47 -101l-113 -96l-131 -41l-143 27l-111 219l-6 72l2 120l8 88l29 113l47 90zM508 176l2 8v-2l-14 -8v-2zM627 1368l-4 -18l96 -33l16 -4zM569 1309l-30 -23l28 17l-6 -13l17 4l59 -12l39 -68l14 -79l-2 -131
l-4 -64l-16 -88l22 84l15 96l-3 101l-14 84l-39 71l-61 25zM379 1243l-51 -72l4 -12l67 86l66 74l14 8l-4 6v6l-12 -8zM240 129l-7 -4l43 2l54 23l55 59l4 8l-41 -20l17 71l18 92l43 54l43 84l27 37l43 98l-39 -37l47 86l43 94l18 74l27 39l16 94l6 102l-4 72l-16 78l-27 35
l-2 8l-49 4l-4 -6l-43 -70l53 43l10 -22l-40 -56l-50 -81l-24 -86l-27 -89l-39 -86l-43 -75l-28 -27l4 -59l-33 -68l-14 -80l-23 -49l-6 -78l24 41l-14 -92l-8 -119l-2 -67zM209 96l-14 41l12 -49l53 -12l76 26l61 54l29 49l-8 8l-35 -57l-64 -47l-86 -19z" />
    <glyph glyph-name="p" unicode="p" horiz-adv-x="999" 
d="M45 367l-10 10l71 41h3l10 41l14 90l2 61l23 92l24 97l21 82l12 32l-14 39l45 62l16 53v6l2 -2l4 14l-6 9l-4 -2l-47 -2l-4 8l53 18l10 19l-26 -9l-99 -45l-6 4l-14 31l31 33l106 51h-24l-7 2l99 47v13l-107 -31l43 39l105 35l10 6l10 12l49 80l52 90l28 31v-19l-31 -82
l-55 -92l23 10l16 29l43 88l37 80l22 41l27 -25l6 -38l-20 -89l24 62l-16 -88l2 -12l12 2l31 59l-6 -57l63 6l95 -8l149 -60l72 -125l-17 -67l-8 -31l6 -45l6 61l5 -110l20 35l27 18l-17 -106l-39 -101l-43 -96l-61 -88l-86 -58l-2 -16l-64 -59l-57 -49l-74 -54l13 -16
l-113 -64l-86 -43l-76 -12l-45 -12l-18 -39l-37 -92l-43 -90l-31 -68l-53 -121l-41 -63l-14 -8l-35 -39l53 90l37 90l33 82l51 112l37 82l16 50h-6l-6 -5l-10 -22l-39 -88l-37 -84l-35 -88l-39 -92l-47 -80l-41 -76l-18 -51v61l-19 10l-8 11l29 61l55 127l-4 27l-39 -107
l14 49l17 64l30 113l-22 -39l-37 -86l-27 -47l15 83l28 86l33 99l6 12h-24h-35l67 25l7 16l-17 -6l-94 -35l-43 -16l8 28l6 37l92 41l45 33l-75 -33l82 47l28 17v4l2 8zM897 1083l-4 -41l-41 -71l-33 -66l60 80l28 68l6 32zM573 1210v-4l25 6zM403 729l-14 -94l21 22
l-11 -69v-8l33 22l80 45l82 43h2l27 70l34 12l45 43l-2 25l54 71l53 45l43 62l18 61l-20 -2l-12 4l-21 47l-8 25l-12 8l-27 4l-6 -16l-113 14l-33 -2l-55 4l-22 -73l-41 -82l-52 -78l-6 -4l4 -19l-24 -53l-4 -78zM326 338l-2 -6l43 18l-39 -8zM268 326l-6 -17l6 2l4 17z" />
    <glyph glyph-name="q" unicode="q" horiz-adv-x="839" 
d="M236 1028l22 76l59 88l-32 -10l63 82l90 108l107 68l73 6l82 -43l-96 2l-29 -16l166 -15l64 -108l29 -117l2 -107l-25 -69l-4 -33l-19 -96l17 47v-33l-25 -94l-2 -29l45 88l17 6l-23 -88l-49 -108l-14 -62l-21 -122l-31 -107l-8 -20l23 -99l-8 -69l18 -95l16 -110l5 -84
l-13 -39l-14 92l-19 90l-22 117l-21 80l11 -96l22 -105l17 -94l18 -96l2 -25l-41 4l-24 29l-33 86l12 -60l-31 66l-28 61l10 -92l-33 35l-26 94l-17 41l-39 -30l-30 -23l-50 -12l-2 8l-35 -21l-167 -12l-146 119l-41 88l-8 154l8 94l35 135l29 78l30 90l43 94l45 82l15 51z
M317 115l7 18l-31 -12l-76 24l-20 31l-13 62l-6 -27l19 -64l45 -36l73 2zM324 0l63 20l-8 23l-49 -35zM289 518l33 37l-35 -90l-31 -115l-10 -69l-19 -45v-46l17 -28l35 -8l57 14l22 20l39 62l19 26l-6 19l-23 20l-8 113l20 78l4 96l7 94l16 33l10 -100l-2 -47l15 2v10
l-5 102l-6 99l45 -33l27 -53h8l27 -58l18 11h2l21 57l47 84l49 90l29 55l22 49l-12 -67l-23 -72l-39 -78l-69 -129l6 -35l16 52l50 92l43 88l32 63l-12 9l29 71l4 64l2 10v4v14l-2 -14l-17 35l-26 90l-2 -29l6 -110l-23 39l-8 69l-37 70l-30 -27l-23 -37l-57 -84l-52 -63
l-40 -66l-48 -79l-8 -5l-10 -88l-31 -36l-14 -60l-16 -55z" />
    <glyph glyph-name="r" unicode="r" horiz-adv-x="1044" 
d="M37 391l84 49l-45 -16l47 29l4 12l2 10l-18 -2l-15 19l43 18l11 35l22 100l12 10l11 50l26 77l-10 17l18 65l39 121l27 49l-39 -22l-39 -17l27 33l69 51l9 19l-13 -8l-78 -46l-69 -67l2 18l-6 45l10 29l68 74l-68 -58l65 72l35 41l-84 -49l25 47l84 64l96 57l31 18l33 74
l18 16l35 52l-37 -91l-10 -28l20 12l10 27l39 96l29 61l10 -30v-72v-27l-6 -26l39 14h129l119 -43l55 -51l78 -90l-16 -6l24 -33l31 -133l12 71l-16 93l43 -129l-17 -134l-28 -102l-51 -113l-68 -100l-102 -80l-109 -45l-25 -2l-51 -31h-2l66 -34l61 -62l72 -74l67 -79
l5 -31l-78 74l-88 86l-76 41l78 -64l75 -70l74 -73l35 -41l-51 -8l-51 24l-13 -2l-30 8l-50 15l48 -54l-82 41l-78 47l-82 23l-94 39l-54 45l-12 -35l-14 -92l-27 -53l-22 -119l-27 -90l-31 -107l-16 -20l-27 -51l23 94l20 94l35 127l8 68l-8 4l-22 -99l-25 -94l-20 -102
l-25 -94l-12 -93l-21 25l-20 76v41l4 100l-10 -92l-5 72l7 112l-19 -47l-24 -88l-2 96l16 105l8 82l-2 110l4 51h-10l12 9l2 24l-20 -6l-94 -35l28 47zM958 1223l-6 -2l31 -50zM891 1186l-8 -15l20 -45l-14 -96l-29 -67l-29 -70l50 86l28 84l-2 82zM457 729l-27 -65l92 26
l31 6l25 11l63 45l51 34l-8 15l59 67l41 66l43 39l33 78l12 67l-8 29l-4 -6l-61 6l-37 14l-60 17l-26 -15l-41 -8l-66 -16l-16 -2l-8 -27l-15 -78l-18 -112l-25 -95zM369 1126l-7 -20l15 8l2 2l8 21zM354 1067l-12 -49l20 53z" />
    <glyph glyph-name="s" unicode="s" horiz-adv-x="784" 
d="M20 717l-55 26l55 19h3l2 90l49 66l51 69l57 55l-10 13l59 63l91 80l59 33l76 57l100 64l76 43l92 51l37 10l10 -4l-86 -57l-76 -52l-121 -71l-47 -45l-16 -23l88 66l88 55l88 57l76 45l100 56l-22 -21l14 -30l-27 -29l-88 -72v-14l54 41l-68 -64l-76 -71l74 43l59 28
l-67 -67l-86 -62l-60 -57l-73 -82l-60 -68l-55 -57l-72 -67l-67 -50l61 -18l82 -14l39 6l88 -23l70 -33l24 -28h2h25l-16 -12l8 -11l47 33l16 -2l25 -39l-25 -25l19 -8l-19 -20l17 -17l32 -51l-71 41l-6 -6l45 -35l39 -35l-50 -26l-12 -4l-61 6l-19 -14l27 -31l-37 18
l-45 -57l-64 -84l-14 -12l-2 -7l-10 -6l-37 -37l-59 -47l-11 -28l-75 -62l-64 -24l-104 -74l-72 -47l-51 -33l-37 -10l76 69l100 68l63 55l-40 -20l-93 -62l-69 -61l-82 -63l-8 10l-11 43l52 61l-19 -10l10 31l50 71l-82 -69l32 71l90 78l78 84l52 64l77 59l19 10l22 37
l41 49l27 21l-62 26l-49 43l-78 43l-102 50l-25 32l103 -41l102 -47l70 -24l-55 35l-86 38l-95 41l-32 15l-7 -6v8zM203 762l-4 -2h12zM66 770l-7 -8h2h19z" />
    <glyph glyph-name="t" unicode="t" horiz-adv-x="712" 
d="M117 1237l-86 -6l104 47l78 49l80 23l26 2l9 12l75 20l72 23l14 35l-6 -31l27 4l10 45l10 33l19 -16l20 -47l-2 -7h49l86 4l93 5l100 -13l14 -14l-114 -4l-111 -8l-61 -21l108 10l103 15l112 -8l10 -11l-8 -45l-102 -12l61 -6l-86 -25l6 -16l21 -19l-86 -24l-96 -33
l-91 -31l-26 -94l-17 -82l-24 -127l-21 -88l-28 -86l-45 -92v-2l-11 -25l-10 -36l6 -54l-14 -71l-33 -109l-39 -53l-41 -109l-36 -76l-35 -94l-25 -53l10 80l27 90l51 113l19 71l-21 -34l-39 -95l-35 -90l-30 -98l-19 -94l-22 12l-25 47l17 113l-9 8l-6 -4l12 106l-18 -16
l-33 -82l8 98l31 101l19 102l10 88l20 88l4 12l5 31l26 84l31 70l2 43l6 35l41 108l29 74l32 45l27 88l-43 -23l-57 11l-111 -15l-74 2l15 17l123 14l28 21l-104 -11l-96 -18l-41 16l39 47l2 11zM367 1073l-15 -65l2 -25l35 107l19 51l-17 -8z" />
    <glyph glyph-name="u" unicode="u" horiz-adv-x="1167" 
d="M1165 1157l-35 -84l-40 -94l-39 -100l-29 -76l-4 -27l-17 -65l-32 -80h16l-22 -68l-43 -110l-33 -82l-35 -39l-37 -103l-51 -90l-31 -76l-49 -120l-43 -70l-20 -27l-9 9l43 88l39 106l37 98l55 99l21 69l10 50l-43 -113l-49 -90l-33 -84l-39 -111l-41 -71l-41 -99
l-20 -41l-8 31l-2 61v25l37 100l12 68l-29 -90l8 39l15 78l18 100l-24 -59l-43 -113l-3 47l25 94l41 117l33 86l18 74l-4 -6l-55 -78l-60 -86l-67 -94l-60 -72l-186 -96l-176 106l-47 78l-21 164l21 112l12 31l-6 -6l27 96l-58 -80l25 95l37 84l32 92l52 84l61 75l29 31
l6 21l-14 22l45 109l53 65l55 78l64 78l84 86l49 33l-51 -66l-62 -82l-74 -90l-32 -70l63 86l62 80l69 78l74 74l6 -23l16 -32l-69 -86l20 12l-4 -25l-37 -86l60 70l2 -37l-53 -86l-33 -78l-31 -88l-27 -86l-47 -92l-61 -72l-2 -8v-8l-6 -12l-2 -23l-21 -31l-12 -71l-12 -64
l-31 -69l-31 -95l25 29l-8 -49l-7 -72l19 -33l10 7l57 59l74 96l53 66l68 78l76 88l39 34l26 17l54 41l-76 -78l-56 -68l-63 -82l-53 -67l-94 -121l-52 -59l-41 -41l-57 -33l61 25l64 57l59 76l64 82l61 79l68 84l53 54l78 94l8 12l10 29l13 71l10 35l59 107l47 43l45 80
l60 88l67 94l33 25l2 -13l-51 -84l-65 -100l-35 -68l10 -2l18 33l56 88l57 88l57 86l17 17l26 -29l-8 -41l-47 -96l31 41l-8 -41l-41 -99l43 56zM227 219l-24 6l12 -12zM672 516l14 43l-29 -43l-30 -53l-76 -117v-8l37 37l74 94zM688 565l8 27l-37 -49l-32 -49l16 12z" />
    <glyph glyph-name="v" unicode="v" horiz-adv-x="778" 
d="M834 84l28 43l-2 18l-4 -6l-18 -22zM737 948l-26 -71l-35 -72l-64 -88l-4 -21l-30 -82l-19 -65l-45 -80l25 4l-45 -70l-58 -96l-45 -74l-37 -22l-53 -86l-57 -88l-41 -62l-2 -4l-4 -16l-15 -21l-16 -38l4 28l-16 -24l-2 -23l-9 -57l-18 35l-8 4l-41 -52l33 56l-17 10v4
l-45 -80l-47 -65l18 61l-6 31v22l39 84l23 66v2l-37 -78l10 37l25 66l-2 36l-4 -6l-15 -26v-7l-10 -14l-35 -59l19 82l8 14l-4 41l10 100l-2 78l-17 82l-12 102l10 91l11 75l4 64l-2 20l6 80l-21 -2l4 76l5 104l22 58l14 90l23 98l31 94l30 78l13 31l2 -39l-19 -84l-26 -90
l-23 -109l-6 -75l14 49l19 90l20 92l27 86l18 86l9 88l18 -37l25 -59l8 -19l-11 -100l13 51l4 -43l-12 -90l14 8l29 97l10 -60l-15 -78l-10 -102l2 -82l8 -74l13 -84l-15 -92l-18 -90l-8 -37l4 -18v-92l20 36l41 60l39 72l-4 41l37 61l33 74l33 59l-11 10l54 99l43 63l49 55
l63 82l47 62l62 80l35 34l-35 -63l-45 -80l-68 -88l-37 -61l-20 -45l61 88l56 73l53 86l53 72l49 70l2 -37l12 -39l-40 -74l-19 -55l35 61l-33 -82l-14 -51l49 68l14 -13l-43 -90l-51 -88zM176 -10l4 28l-16 -30l-2 -17l-2 -10zM301 190l45 78l-53 -71l-51 -78l-17 -25
l-8 -35v-4l53 84z" />
    <glyph glyph-name="w" unicode="w" horiz-adv-x="1155" 
d="M973 385l-43 -102l-33 -80l-41 -49l-47 -105l-41 -78l-49 -98l8 -25l-14 15l-17 -19l-43 -61l37 80l6 16l-6 4l-6 4l-35 -71l-41 -97l2 41l-22 27l4 39l31 102l-5 21l-28 -82l20 88l2 6l-14 27l-33 -74l15 94l2 8l-9 15l-6 -31l-12 -33l-31 92l-35 93l-38 102l-17 111
l12 114l23 43l2 17l-8 4l2 6l-23 -25l23 -8l-70 -80l-61 -76l-51 -34l-64 -76l-2 -17l-6 -92l-18 -92l-15 -51l-4 29l4 86l4 96l-14 -14v-82l-14 -78l-4 -103l-11 21l-33 18l-14 25l-4 104l-6 -37l-8 25l-4 -6l-43 -45l-33 -31l35 60l8 14l-2 22l-29 -34l-51 -86h-6l-23 20
l-8 31l53 100l4 29l-38 -64l40 88l41 78v4l-63 -78l-27 -14l45 88l47 64v28l-8 97l-6 122l17 99l28 88l10 20l5 58l24 82l-8 14l35 104l33 54l30 96l47 98l47 94l41 62l37 41l-37 -82l-41 -92l-53 -113l-18 -76l10 6l35 95l41 92l45 92l43 88l10 12l29 -24v-39l-35 -105
l20 33v-24l-24 -99l20 15l43 94l-14 -94l-33 -97l-10 -59l-25 -135l-20 -94l-33 -86l-31 -68l-2 -33l39 41l8 12l3 39l71 88l66 50l86 73l22 17v2l15 51l6 -39l20 14l2 54l8 2l39 -23l11 -29l24 19l19 -49l-21 -33l2 -16l8 6l-8 -13l4 -38l21 16l-19 -37l2 -12l15 28l18 56
l6 -107l-4 -108l4 -88l-6 -105l-14 -88l-23 -82l-12 -18l6 -6l2 8l39 108l41 80l33 64l16 51l21 59l4 58l16 57l35 98l39 52l47 108l41 76l47 96l31 45l-17 -63l-32 -88l-56 -111l-22 -68l12 11l41 90l41 90l41 82l31 94l16 -25l19 -38l-7 -48l-10 -73l19 57l-21 -102
l12 -13l39 93l-8 -91l-35 -98l-18 -80l-21 -102l-16 -92l-47 -95l-21 -36l-18 -74l-33 -76v-37zM188 268l5 23l-17 -17l-4 -24zM229 317l37 54l-33 -37zM557 946l2 19l-76 -70l9 -6zM588 975l16 14v4v17l-16 -17v-18zM614 -33l2 6l-12 25zM655 211l2 8l-4 14zM684 973l2 -12
v2v14zM723 -51l2 6l-8 8l-12 -33l4 -18zM817 141l27 82l-27 -49l-45 -92l-41 -88l-4 -8v-29l43 88z" />
    <glyph glyph-name="x" unicode="x" horiz-adv-x="843" 
d="M27 422l49 94l41 84l49 94l80 92v2l-21 130l-2 108l21 53l-6 129l6 105l8 96l6 70l12 -70l6 -84l-4 -131l7 -104l12 -80l-4 110l2 115v102v109l4 117l20 -45l27 -35l14 -19l21 -121l-6 84l20 -71l19 -109l10 64l10 67l21 -96l6 -113l12 -41l45 62l61 47l78 90l82 76
l41 29l49 26l-73 -84l-82 -84l-66 -76l-31 -61l78 94l74 82l76 76l69 80l6 -19l9 -49l-21 -45l-31 -63l27 32l-59 -100h20l68 62l-53 -91l-58 -82l-55 -108l-43 -88l-62 -80l-75 -82l-13 -10l2 -10l-18 -101l8 -28l27 -15l18 -133l19 -96l-6 -84l-3 -115l17 -110l-6 -37
l-4 -31l-29 102l-12 117l-9 98l-10 9l2 -115l15 -102l20 -99l43 -100l-31 2l-55 27l-45 112v-30l-18 22l-47 111l16 -107l-25 -2l-37 123l-16 109l-39 90l-2 10l-2 -2l-53 -35l-78 -100l-64 -70l-83 -94l-29 -17l-25 -16l66 92l61 78l94 107l46 71l-35 -33l-72 -86l-68 -81
l-69 -87l-60 -90l-22 -32l-10 36l-19 33l64 115l4 29l-35 -52l47 95l27 55l-72 -76l-12 19l57 88z" />
    <glyph glyph-name="y" unicode="y" horiz-adv-x="860" 
d="M12 477l-12 125l8 33l15 106l8 -8l12 39l18 76l-8 31l31 86l39 102l45 51l53 99l47 88l31 49l37 43l-35 -90l-43 -93l-55 -98l-21 -69l49 92l50 92l41 92l34 90h9l30 -27l6 -30l-20 -105l25 78l-19 -102l2 -37l45 98l-8 -88l-43 -108l-23 -80l-22 -97l-29 -92l-37 -75
l-30 -86l-33 -35l-16 -4l18 -29l39 24l72 99l51 69l33 31l67 76l62 82l59 78l27 39l10 30l45 101l41 86l49 100l14 6l41 72l-37 -90l-30 -82l-39 -88l-13 -25l17 23l12 14l43 98l37 72l35 100l26 50l7 -33l2 -62l4 -20l-27 -82l6 6l13 18l2 5l-2 -5l2 5v-39v-39l10 -10
l-37 -66l-21 -35v-16l39 76l35 67l-20 -100l-31 -88l-8 -27l-2 -2l-23 -68l-12 -69l-16 -109l-15 -100l-18 -90l-31 -94l-29 -88l-26 -91l-25 -4l-12 -34l-2 -7h22l-36 -96l-25 -90l-35 -53l-29 -99l-38 -98l-41 -104l-35 -74l-25 -47l21 78l24 88l39 106l33 92l20 89
l-30 -80l-35 -97l-33 -94l-37 -96l-30 -94l-17 -39l-14 24l-27 29l23 88l10 86l-25 -102l11 82l20 114l-24 -47l-37 -94l10 100l27 101l20 92l12 106l15 99l22 71l-74 -45l-172 -8zM651 1077l-12 -41l2 4l23 33l22 55zM475 840l-29 -49l74 90l27 32l8 33l-43 -53zM211 592
l-4 -17l16 -2l25 25z" />
    <glyph glyph-name="z" unicode="z" horiz-adv-x="1085" 
d="M1190 1477l14 -23l8 -18l-47 -60l-82 -104l19 10l59 72l-53 -80l-72 -94v-15l45 39l80 86l-45 -82l-49 -61l-70 -94l-67 -88l-60 -86l-43 -64l-65 -86l-57 -67l-74 -76l-74 -58l-61 -69l-27 16l-80 -94l-8 14l-35 -28l-43 -41l68 26l92 45l18 25l99 31l61 -2l111 32
l94 19l74 6l38 -10l-104 -25l-115 -27l-2 -2l15 -6l61 13l78 22l100 16l6 -8l-16 -45l-49 -24l-14 -15l-3 -12l-53 -31l12 -8l50 12l-27 -34l-39 -15l-33 -43l-67 -24l-80 -41l-84 -27v-16l-107 -33l-77 -16l-70 -11l-104 -30l-89 -23l-106 -20l-41 -5l68 33l92 27l119 35
l40 16l-2 10l-32 -10l-95 -29l-100 -28l-98 -29l-60 -12l-32 -25l18 21h-6l29 26l4 6l16 35l31 15l24 24l-4 -2l6 2l7 8l73 56l-22 -4l4 6l-25 -21l-75 -59l-62 -68l-63 -82l10 31l-15 35l5 29l63 100l-29 -29l2 15l70 88l-8 8l-86 -76l27 61l73 68l64 66l57 84l49 69l68 78
l104 76l78 47l55 8l47 55l23 43l6 19l68 76l63 73l51 43l62 56l59 67l-26 -4l-72 -4l-2 -18l-103 -23l-94 -25l-61 5l-105 -25l-71 -16l-86 -31l-56 -14l37 26l74 39l90 27l98 22l76 27l-88 -17l-102 -22l-80 -27l-82 -32l-82 -41l4 18l4 39l17 20l88 60l-47 -25l28 31
l94 53h-36l-93 -37l78 60l109 41l76 30l102 45l111 37l108 15l107 -4l102 -21l47 -14l4 -17l58 58l16 6l70 67l-37 -53l-64 -74l-35 -36h2l-16 -33l45 49l59 55l74 88l66 72zM178 276l37 48l-78 -76l-22 -19l39 17zM297 309l4 15l-20 -23zM823 1094l70 75h-19l-59 -63
l-41 -53l-31 -43z" />
    <glyph glyph-name="braceleft" unicode="{" horiz-adv-x="1734" 
d="M1655 1513l-70 -4l6 -8l-67 4l-156 -10l-47 -12l92 10l76 6l-109 -14l-73 -15l-111 -22l29 2l49 2l135 16l-29 -12l-82 -18l-77 -13l-97 -24l-63 -29l-33 -26l-31 -43l-10 -62l-26 -80l-64 -76l-53 -51l-58 -55l-71 -55l-64 -37l-102 -45l10 18l-65 -22h55l-74 -35
l-74 -43l-63 -25l35 -4l104 -8l96 -10l89 -21l69 -22l4 6l21 -4l-2 -10l75 -29l9 -6l39 18l6 -8l-31 -29l4 -26l-16 -43l24 -31l-73 -12l-5 -4l-41 -23l-51 -51l-67 -60l-43 -36l-43 -37l-37 -25l-82 -65l-45 -45l69 47l-26 -27l-70 -53l-65 -54l-19 -34v-29l15 -43l6 -20
l10 -19l59 -33l78 -24l98 -23l95 -14l80 -2l79 -4l115 -4l127 6l80 2h51l-31 -6l132 8l36 -4l-79 -6l-123 -7l-72 -6l-111 -8l-98 2l-78 2l-139 6l-127 25l-66 16l-38 13l-68 26l-55 41l14 -18l86 -49l78 -27l92 -23l92 -14l94 -2l99 -4l102 -2l119 8l80 2l88 6l119 9l86 8
l106 12l-70 -12l-69 -11l82 -2l-78 -18l-84 -12l63 -2l-81 -6l-80 -9l-176 -14l-46 -6l-57 -10l139 12l103 10l-17 -6l-120 -12l-52 -6l-153 -7l-113 -2l-12 -4l92 -4l47 -2l166 2l106 8l-94 -14l-104 -14h-98l-95 2l-129 2l-114 18l-121 27l-62 16l-100 43l-125 121l-22 51
l-9 68l62 127l63 53l58 49l57 39l84 68l55 37l66 47l53 37l47 41l-29 4l-86 20l-53 23l-104 22l-90 25l-103 30l-43 21h17l104 -21l104 -28l78 -17l58 -6l-107 25l-92 24l-92 23l-105 29l-16 6l25 22h36l113 -16l-55 12h49l102 -12l-20 8l-39 2l-43 25l-51 51l59 51l55 25
l45 22l78 15l37 4l23 10l43 35l28 4l54 47l24 31l43 30l53 56l-24 -9l29 35l49 49l30 60l15 49l26 37l70 72l90 59l137 45l95 18l90 9l135 12h82l-6 -6l104 -8h-55l-107 -3l-108 -10l-94 -12l-130 -23l-129 -45l-38 -24l-78 -72l-2 -10l92 80l96 47l98 24l103 17l100 12
l105 8l102 -2l96 -12l103 -16l-113 12zM350 889l15 2h-5z" />
    <glyph glyph-name="bar" unicode="|" horiz-adv-x="542" 
d="M459 1245l-15 -57l-22 -80l-2 -68l-8 -61l-27 -86l-12 -19l-2 -30l14 -45l2 -66l2 -82l14 39l3 -53l-17 -74l-18 -92l-19 -70l-22 -71l-23 -17l-18 -61l-19 -82l-20 -92l-31 -68l-29 -49l-22 -98l-16 -66l-11 -20l-14 -35l-25 -59l17 59l12 78l14 78l15 69l33 60l40 120
l15 64l6 49l20 76l-10 -10l-24 -95l-19 -75l-18 -76l-33 -70l-27 -73l-14 -82l-16 -52l-21 -94l-20 -65l-29 -78l23 80l-21 -17l-12 27l4 47l-2 10l10 56l14 118l-4 33l-8 -72l-10 -71l6 69l-2 45l20 121l19 54l-29 -52l-24 -65l-15 -99l-10 17l-2 70l25 92l30 69l11 62
l16 96v37l27 121l6 43l8 69l16 74l11 66l2 45l-15 -11l-12 60l4 49l16 70l7 57l20 45l10 16l2 4l15 21v20l-37 -10l16 111l31 71l33 25l37 80l45 80l38 51l44 84l12 2l47 51l-47 -71l-25 -64l-35 -57l-59 -103l-18 -47l-21 -55l41 76l39 71l41 72l37 70l33 55l38 74l15 22
l20 2l-8 -69l6 -9l-37 -94l2 -22l29 78l-12 -56l-29 -84l4 -8l41 66l23 32l-17 -77l-34 -68z" />
    <glyph glyph-name="braceright" unicode="}" horiz-adv-x="1470" 
d="M1350 797l71 30l49 27l-8 -33l-14 -30l-76 -48l47 21l-30 -29l-84 -51l94 35l2 -19l-86 -41l-86 -45l-62 -43l-86 -49l-45 -18l49 -43l56 -58l53 -41l35 -51l51 -88l31 -53l-15 68l29 -88l4 -103l-86 -135l-74 -47l-104 -49l-37 2l-104 -23l-95 -20l-120 -25l-93 -14
l-79 -8l-129 -15l-99 -10h-71l10 4h-113l41 8l127 2l80 15l98 12l86 10l138 21l129 24l57 15l65 16l111 33l-70 -17l-104 -22l-100 -21l-99 -20l-96 -16l-100 -13l-113 -14l-84 -8l-102 -6l-101 -2l-98 -3l27 5l57 10l-23 6l66 16l-29 9l76 2l105 8l124 20l33 13l-114 -21
l-84 -10l104 18l53 13l140 24l79 16l-57 -4l-53 -4l-142 -18l-43 -2l87 22l100 19l96 14l94 23l95 20l77 23l84 24l66 37l37 29l20 30l-2 39l-14 50l-23 57l-30 57l-43 60l-50 47l-34 35l24 4l-76 24l-4 2l-32 -16l-5 27l-38 12l36 10v10l-59 33l20 59l70 35l57 27l23 22
l39 15l108 55l64 12l45 17h-2l-82 6h-47l-150 98l11 111l2 30l-19 -12l37 72l37 86l35 67l18 46l23 14l-6 65l-11 82l7 49l-29 23l-82 16l-92 15l-43 4l-29 4l-61 4l84 2h88l98 -16l63 -15l29 -55l6 -86l13 -41v-65l4 -9l4 82l-10 78l-3 68l-36 37l-82 16l-92 16l-95 4
l-102 -8l-92 -18l53 16l-8 12l22 19l50 14l26 4l98 6l132 -6l10 4l-131 9l4 4l100 -2l135 -17l97 -55l-68 53l-109 27l-116 18h86l78 -4l143 -63l49 -117l12 -72l17 -41l-8 -147l-25 -58l-21 -65l-30 -70l-27 -61l-4 -16l20 -3l95 -18l-11 -14l76 -2l96 6l-59 -37l4 -19
l4 -12l37 12l41 7l-63 -31l-9 -4l7 -6h2zM1163 725l51 18l-18 5l-41 -15l-70 -35z" />
    <glyph glyph-name="asciitilde" unicode="~" horiz-adv-x="634" 
d="M559 764l-67 -57l-76 -56l26 11l86 61l64 59l26 -26l-22 -68l27 14l-52 -84l64 37l-62 -86l-79 -94l-121 -61l-180 155l-64 -34l-68 -23l78 70l51 28v4l-43 -14l-69 -55l-43 -27l-15 53v11l37 90l-57 -29l78 88l127 90l190 -76l8 -57l54 37l71 41z" />
    </font>
</defs>
</svg>
